<mxfile host="app.diagrams.net" modified="2024-07-19T02:17:15.525Z" agent="Mozilla/5.0 (Windows NT 10.0; Win64; x64) AppleWebKit/537.36 (KHTML, like Gecko) Chrome/126.0.0.0 Safari/537.36" etag="c3usZn-2gfHZgpA2eFzv" version="24.6.5" type="device">
  <diagram name="Page-1" id="b520641d-4fe3-3701-9064-5fc419738815">
    <mxGraphModel dx="2897" dy="2439" grid="1" gridSize="10" guides="1" tooltips="1" connect="1" arrows="1" fold="1" page="1" pageScale="1" pageWidth="1100" pageHeight="850" background="none" math="0" shadow="1">
      <root>
        <mxCell id="0" />
        <mxCell id="1" parent="0" />
        <mxCell id="21ea969265ad0168-6" value="Concesionario" style="swimlane;html=1;fontStyle=0;childLayout=stackLayout;horizontal=1;startSize=26;fillColor=#A8DADC;horizontalStack=0;resizeParent=1;resizeLast=0;collapsible=1;marginBottom=0;swimlaneFillColor=#ffffff;align=center;rounded=1;shadow=0;comic=0;labelBackgroundColor=none;strokeWidth=1;fontFamily=Verdana;fontSize=12;strokeColor=#457B9D;fontColor=#1D3557;" parent="1" vertex="1">
          <mxGeometry x="290" y="1130" width="160" height="236" as="geometry" />
        </mxCell>
        <mxCell id="21ea969265ad0168-7" value="PK&amp;nbsp;&amp;nbsp;id_concesionario" style="text;html=1;strokeColor=none;fillColor=none;spacingLeft=4;spacingRight=4;whiteSpace=wrap;overflow=hidden;rotatable=0;points=[[0,0.5],[1,0.5]];portConstraint=eastwest;fontStyle=1;labelBackgroundColor=none;fontColor=#1D3557;" parent="21ea969265ad0168-6" vertex="1">
          <mxGeometry y="26" width="160" height="26" as="geometry" />
        </mxCell>
        <mxCell id="21ea969265ad0168-8" value="nombre_concesionario" style="text;html=1;strokeColor=none;fillColor=none;spacingLeft=4;spacingRight=4;whiteSpace=wrap;overflow=hidden;rotatable=0;points=[[0,0.5],[1,0.5]];portConstraint=eastwest;labelBackgroundColor=none;fontColor=#1D3557;" parent="21ea969265ad0168-6" vertex="1">
          <mxGeometry y="52" width="160" height="26" as="geometry" />
        </mxCell>
        <mxCell id="21ea969265ad0168-9" value="direccion" style="text;html=1;strokeColor=none;fillColor=none;spacingLeft=4;spacingRight=4;whiteSpace=wrap;overflow=hidden;rotatable=0;points=[[0,0.5],[1,0.5]];portConstraint=eastwest;labelBackgroundColor=none;fontColor=#1D3557;" parent="21ea969265ad0168-6" vertex="1">
          <mxGeometry y="78" width="160" height="32" as="geometry" />
        </mxCell>
        <mxCell id="8dd9FDoS5vBMyWjFudpx-2" value="ciudad" style="text;html=1;strokeColor=none;fillColor=none;spacingLeft=4;spacingRight=4;whiteSpace=wrap;overflow=hidden;rotatable=0;points=[[0,0.5],[1,0.5]];portConstraint=eastwest;labelBackgroundColor=none;fontColor=#1D3557;" parent="21ea969265ad0168-6" vertex="1">
          <mxGeometry y="110" width="160" height="32" as="geometry" />
        </mxCell>
        <mxCell id="8dd9FDoS5vBMyWjFudpx-3" value="departamento" style="text;html=1;strokeColor=none;fillColor=none;spacingLeft=4;spacingRight=4;whiteSpace=wrap;overflow=hidden;rotatable=0;points=[[0,0.5],[1,0.5]];portConstraint=eastwest;labelBackgroundColor=none;fontColor=#1D3557;" parent="21ea969265ad0168-6" vertex="1">
          <mxGeometry y="142" width="160" height="28" as="geometry" />
        </mxCell>
        <mxCell id="8dd9FDoS5vBMyWjFudpx-4" value=" telefono" style="text;html=1;strokeColor=none;fillColor=none;spacingLeft=4;spacingRight=4;whiteSpace=wrap;overflow=hidden;rotatable=0;points=[[0,0.5],[1,0.5]];portConstraint=eastwest;labelBackgroundColor=none;fontColor=#1D3557;" parent="21ea969265ad0168-6" vertex="1">
          <mxGeometry y="170" width="160" height="28" as="geometry" />
        </mxCell>
        <mxCell id="8dd9FDoS5vBMyWjFudpx-5" value="&lt;b&gt;FK id_vendedor&lt;/b&gt;" style="text;html=1;strokeColor=none;fillColor=none;spacingLeft=4;spacingRight=4;whiteSpace=wrap;overflow=hidden;rotatable=0;points=[[0,0.5],[1,0.5]];portConstraint=eastwest;labelBackgroundColor=none;fontColor=#1D3557;" parent="21ea969265ad0168-6" vertex="1">
          <mxGeometry y="198" width="160" height="28" as="geometry" />
        </mxCell>
        <mxCell id="8dd9FDoS5vBMyWjFudpx-23" value="Insumo" style="swimlane;html=1;fontStyle=0;childLayout=stackLayout;horizontal=1;startSize=26;fillColor=#A8DADC;horizontalStack=0;resizeParent=1;resizeLast=0;collapsible=1;marginBottom=0;swimlaneFillColor=#ffffff;align=center;rounded=1;shadow=0;comic=0;labelBackgroundColor=none;strokeWidth=1;fontFamily=Verdana;fontSize=12;strokeColor=#457B9D;fontColor=#1D3557;" parent="1" vertex="1">
          <mxGeometry x="-140" y="455" width="160" height="215" as="geometry" />
        </mxCell>
        <mxCell id="8dd9FDoS5vBMyWjFudpx-24" value="PK&amp;nbsp; id_insumo" style="text;html=1;strokeColor=none;fillColor=none;spacingLeft=4;spacingRight=4;whiteSpace=wrap;overflow=hidden;rotatable=0;points=[[0,0.5],[1,0.5]];portConstraint=eastwest;fontStyle=1;labelBackgroundColor=none;fontColor=#1D3557;" parent="8dd9FDoS5vBMyWjFudpx-23" vertex="1">
          <mxGeometry y="26" width="160" height="26" as="geometry" />
        </mxCell>
        <mxCell id="8dd9FDoS5vBMyWjFudpx-25" value="color" style="text;html=1;strokeColor=none;fillColor=none;spacingLeft=4;spacingRight=4;whiteSpace=wrap;overflow=hidden;rotatable=0;points=[[0,0.5],[1,0.5]];portConstraint=eastwest;labelBackgroundColor=none;fontColor=#1D3557;" parent="8dd9FDoS5vBMyWjFudpx-23" vertex="1">
          <mxGeometry y="52" width="160" height="26" as="geometry" />
        </mxCell>
        <mxCell id="Du0r4xQM6rrGVBfCKi6Y-4" value="familia" style="text;html=1;strokeColor=none;fillColor=none;spacingLeft=4;spacingRight=4;whiteSpace=wrap;overflow=hidden;rotatable=0;points=[[0,0.5],[1,0.5]];portConstraint=eastwest;labelBackgroundColor=none;fontColor=#1D3557;" parent="8dd9FDoS5vBMyWjFudpx-23" vertex="1">
          <mxGeometry y="78" width="160" height="26" as="geometry" />
        </mxCell>
        <mxCell id="Du0r4xQM6rrGVBfCKi6Y-5" value="serie" style="text;html=1;strokeColor=none;fillColor=none;spacingLeft=4;spacingRight=4;whiteSpace=wrap;overflow=hidden;rotatable=0;points=[[0,0.5],[1,0.5]];portConstraint=eastwest;labelBackgroundColor=none;fontColor=#1D3557;" parent="8dd9FDoS5vBMyWjFudpx-23" vertex="1">
          <mxGeometry y="104" width="160" height="26" as="geometry" />
        </mxCell>
        <mxCell id="Du0r4xQM6rrGVBfCKi6Y-6" value="fecha_entrada" style="text;html=1;strokeColor=none;fillColor=none;spacingLeft=4;spacingRight=4;whiteSpace=wrap;overflow=hidden;rotatable=0;points=[[0,0.5],[1,0.5]];portConstraint=eastwest;labelBackgroundColor=none;fontColor=#1D3557;" parent="8dd9FDoS5vBMyWjFudpx-23" vertex="1">
          <mxGeometry y="130" width="160" height="26" as="geometry" />
        </mxCell>
        <mxCell id="Du0r4xQM6rrGVBfCKi6Y-7" value="fecha_vencimiento" style="text;html=1;strokeColor=none;fillColor=none;spacingLeft=4;spacingRight=4;whiteSpace=wrap;overflow=hidden;rotatable=0;points=[[0,0.5],[1,0.5]];portConstraint=eastwest;labelBackgroundColor=none;fontColor=#1D3557;" parent="8dd9FDoS5vBMyWjFudpx-23" vertex="1">
          <mxGeometry y="156" width="160" height="26" as="geometry" />
        </mxCell>
        <mxCell id="Du0r4xQM6rrGVBfCKi6Y-8" value="FK id_producto" style="text;html=1;strokeColor=none;fillColor=none;spacingLeft=4;spacingRight=4;whiteSpace=wrap;overflow=hidden;rotatable=0;points=[[0,0.5],[1,0.5]];portConstraint=eastwest;fontStyle=1;labelBackgroundColor=none;fontColor=#1D3557;" parent="8dd9FDoS5vBMyWjFudpx-23" vertex="1">
          <mxGeometry y="182" width="160" height="26" as="geometry" />
        </mxCell>
        <mxCell id="8dd9FDoS5vBMyWjFudpx-32" value="Cliente" style="swimlane;html=1;fontStyle=0;childLayout=stackLayout;horizontal=1;startSize=26;fillColor=#A8DADC;horizontalStack=0;resizeParent=1;resizeLast=0;collapsible=1;marginBottom=0;swimlaneFillColor=#ffffff;align=center;rounded=1;shadow=0;comic=0;labelBackgroundColor=none;strokeWidth=1;fontFamily=Verdana;fontSize=12;strokeColor=#457B9D;fontColor=#1D3557;" parent="1" vertex="1">
          <mxGeometry x="840" y="390" width="160" height="200" as="geometry" />
        </mxCell>
        <mxCell id="Du0r4xQM6rrGVBfCKi6Y-11" value="direccion_cliente" style="text;html=1;strokeColor=none;fillColor=none;spacingLeft=4;spacingRight=4;whiteSpace=wrap;overflow=hidden;rotatable=0;points=[[0,0.5],[1,0.5]];portConstraint=eastwest;labelBackgroundColor=none;fontColor=#1D3557;" parent="8dd9FDoS5vBMyWjFudpx-32" vertex="1">
          <mxGeometry y="26" width="160" height="34" as="geometry" />
        </mxCell>
        <mxCell id="Xd5yJjgraGwI-r6rhSxs-57" value="telefono_cliente" style="text;html=1;strokeColor=none;fillColor=none;spacingLeft=4;spacingRight=4;whiteSpace=wrap;overflow=hidden;rotatable=0;points=[[0,0.5],[1,0.5]];portConstraint=eastwest;labelBackgroundColor=none;fontColor=#1D3557;" parent="8dd9FDoS5vBMyWjFudpx-32" vertex="1">
          <mxGeometry y="60" width="160" height="34" as="geometry" />
        </mxCell>
        <mxCell id="8dd9FDoS5vBMyWjFudpx-118" value="apellido_cliente&amp;nbsp;" style="text;html=1;strokeColor=none;fillColor=none;spacingLeft=4;spacingRight=4;whiteSpace=wrap;overflow=hidden;rotatable=0;points=[[0,0.5],[1,0.5]];portConstraint=eastwest;fontStyle=0;labelBackgroundColor=none;fontColor=#1D3557;" parent="8dd9FDoS5vBMyWjFudpx-32" vertex="1">
          <mxGeometry y="94" width="160" height="34" as="geometry" />
        </mxCell>
        <mxCell id="8dd9FDoS5vBMyWjFudpx-35" value=" nombre_cliente" style="text;html=1;strokeColor=none;fillColor=none;spacingLeft=4;spacingRight=4;whiteSpace=wrap;overflow=hidden;rotatable=0;points=[[0,0.5],[1,0.5]];portConstraint=eastwest;labelBackgroundColor=none;fontColor=#1D3557;" parent="8dd9FDoS5vBMyWjFudpx-32" vertex="1">
          <mxGeometry y="128" width="160" height="32" as="geometry" />
        </mxCell>
        <mxCell id="8dd9FDoS5vBMyWjFudpx-33" value="PK&amp;nbsp;&amp;nbsp; id_cliente" style="text;html=1;strokeColor=none;fillColor=none;spacingLeft=4;spacingRight=4;whiteSpace=wrap;overflow=hidden;rotatable=0;points=[[0,0.5],[1,0.5]];portConstraint=eastwest;fontStyle=1;labelBackgroundColor=none;fontColor=#1D3557;" parent="8dd9FDoS5vBMyWjFudpx-32" vertex="1">
          <mxGeometry y="160" width="160" height="26" as="geometry" />
        </mxCell>
        <mxCell id="8dd9FDoS5vBMyWjFudpx-54" value="Vendedor" style="swimlane;html=1;fontStyle=0;childLayout=stackLayout;horizontal=1;startSize=26;fillColor=#A8DADC;horizontalStack=0;resizeParent=1;resizeLast=0;collapsible=1;marginBottom=0;swimlaneFillColor=#ffffff;align=center;rounded=1;shadow=0;comic=0;labelBackgroundColor=none;strokeWidth=1;fontFamily=Verdana;fontSize=12;strokeColor=#457B9D;fontColor=#1D3557;" parent="1" vertex="1">
          <mxGeometry x="840" y="810" width="160" height="145" as="geometry" />
        </mxCell>
        <mxCell id="8dd9FDoS5vBMyWjFudpx-55" value="PK&amp;nbsp;&amp;nbsp; id_vendedor" style="text;html=1;strokeColor=none;fillColor=none;spacingLeft=4;spacingRight=4;whiteSpace=wrap;overflow=hidden;rotatable=0;points=[[0,0.5],[1,0.5]];portConstraint=eastwest;fontStyle=1;labelBackgroundColor=none;fontColor=#1D3557;" parent="8dd9FDoS5vBMyWjFudpx-54" vertex="1">
          <mxGeometry y="26" width="160" height="26" as="geometry" />
        </mxCell>
        <mxCell id="8dd9FDoS5vBMyWjFudpx-56" value="  nombre_vendedor" style="text;html=1;strokeColor=none;fillColor=none;spacingLeft=4;spacingRight=4;whiteSpace=wrap;overflow=hidden;rotatable=0;points=[[0,0.5],[1,0.5]];portConstraint=eastwest;labelBackgroundColor=none;fontColor=#1D3557;" parent="8dd9FDoS5vBMyWjFudpx-54" vertex="1">
          <mxGeometry y="52" width="160" height="26" as="geometry" />
        </mxCell>
        <mxCell id="8dd9FDoS5vBMyWjFudpx-57" value="  apellido_vendedor" style="text;html=1;strokeColor=none;fillColor=none;spacingLeft=4;spacingRight=4;whiteSpace=wrap;overflow=hidden;rotatable=0;points=[[0,0.5],[1,0.5]];portConstraint=eastwest;labelBackgroundColor=none;fontColor=#1D3557;" parent="8dd9FDoS5vBMyWjFudpx-54" vertex="1">
          <mxGeometry y="78" width="160" height="32" as="geometry" />
        </mxCell>
        <mxCell id="8dd9FDoS5vBMyWjFudpx-59" value="telefono" style="text;html=1;strokeColor=none;fillColor=none;spacingLeft=4;spacingRight=4;whiteSpace=wrap;overflow=hidden;rotatable=0;points=[[0,0.5],[1,0.5]];portConstraint=eastwest;labelBackgroundColor=none;fontColor=#1D3557;" parent="8dd9FDoS5vBMyWjFudpx-54" vertex="1">
          <mxGeometry y="110" width="160" height="28" as="geometry" />
        </mxCell>
        <mxCell id="8dd9FDoS5vBMyWjFudpx-62" value="Producto" style="swimlane;html=1;fontStyle=0;childLayout=stackLayout;horizontal=1;startSize=26;fillColor=#A8DADC;horizontalStack=0;resizeParent=1;resizeLast=0;collapsible=1;marginBottom=0;swimlaneFillColor=#ffffff;align=center;rounded=1;shadow=0;comic=0;labelBackgroundColor=none;strokeWidth=1;fontFamily=Verdana;fontSize=12;strokeColor=#457B9D;fontColor=#1D3557;" parent="1" vertex="1">
          <mxGeometry x="100" y="610" width="160" height="210" as="geometry" />
        </mxCell>
        <mxCell id="8dd9FDoS5vBMyWjFudpx-63" value="PK&amp;nbsp; id_producto" style="text;html=1;strokeColor=none;fillColor=none;spacingLeft=4;spacingRight=4;whiteSpace=wrap;overflow=hidden;rotatable=0;points=[[0,0.5],[1,0.5]];portConstraint=eastwest;fontStyle=1;labelBackgroundColor=none;fontColor=#1D3557;" parent="8dd9FDoS5vBMyWjFudpx-62" vertex="1">
          <mxGeometry y="26" width="160" height="26" as="geometry" />
        </mxCell>
        <mxCell id="8dd9FDoS5vBMyWjFudpx-64" value="Nombre" style="text;html=1;strokeColor=none;fillColor=none;spacingLeft=4;spacingRight=4;whiteSpace=wrap;overflow=hidden;rotatable=0;points=[[0,0.5],[1,0.5]];portConstraint=eastwest;labelBackgroundColor=none;fontColor=#1D3557;" parent="8dd9FDoS5vBMyWjFudpx-62" vertex="1">
          <mxGeometry y="52" width="160" height="28" as="geometry" />
        </mxCell>
        <mxCell id="8dd9FDoS5vBMyWjFudpx-65" value="descripcion" style="text;html=1;strokeColor=none;fillColor=none;spacingLeft=4;spacingRight=4;whiteSpace=wrap;overflow=hidden;rotatable=0;points=[[0,0.5],[1,0.5]];portConstraint=eastwest;labelBackgroundColor=none;fontColor=#1D3557;" parent="8dd9FDoS5vBMyWjFudpx-62" vertex="1">
          <mxGeometry y="80" width="160" height="32" as="geometry" />
        </mxCell>
        <mxCell id="Du0r4xQM6rrGVBfCKi6Y-45" style="edgeStyle=orthogonalEdgeStyle;rounded=0;orthogonalLoop=1;jettySize=auto;html=1;exitX=1;exitY=0.5;exitDx=0;exitDy=0;strokeColor=#457B9D;fontColor=#1D3557;fillColor=#A8DADC;endArrow=none;endFill=0;" parent="8dd9FDoS5vBMyWjFudpx-62" source="8dd9FDoS5vBMyWjFudpx-66" edge="1">
          <mxGeometry relative="1" as="geometry">
            <mxPoint x="340" y="-10" as="targetPoint" />
          </mxGeometry>
        </mxCell>
        <mxCell id="8dd9FDoS5vBMyWjFudpx-66" value="cantidad" style="text;html=1;strokeColor=none;fillColor=none;spacingLeft=4;spacingRight=4;whiteSpace=wrap;overflow=hidden;rotatable=0;points=[[0,0.5],[1,0.5]];portConstraint=eastwest;labelBackgroundColor=none;fontColor=#1D3557;" parent="8dd9FDoS5vBMyWjFudpx-62" vertex="1">
          <mxGeometry y="112" width="160" height="30" as="geometry" />
        </mxCell>
        <mxCell id="HfZGZWcqAwXd5LYoIrl5-8" value="precio" style="text;html=1;strokeColor=none;fillColor=none;spacingLeft=4;spacingRight=4;whiteSpace=wrap;overflow=hidden;rotatable=0;points=[[0,0.5],[1,0.5]];portConstraint=eastwest;labelBackgroundColor=none;fontColor=#1D3557;" parent="8dd9FDoS5vBMyWjFudpx-62" vertex="1">
          <mxGeometry y="142" width="160" height="30" as="geometry" />
        </mxCell>
        <mxCell id="Du0r4xQM6rrGVBfCKi6Y-2" value="codigo_barras" style="text;html=1;strokeColor=none;fillColor=none;spacingLeft=4;spacingRight=4;whiteSpace=wrap;overflow=hidden;rotatable=0;points=[[0,0.5],[1,0.5]];portConstraint=eastwest;labelBackgroundColor=none;fontColor=#1D3557;" parent="8dd9FDoS5vBMyWjFudpx-62" vertex="1">
          <mxGeometry y="172" width="160" height="30" as="geometry" />
        </mxCell>
        <mxCell id="8dd9FDoS5vBMyWjFudpx-108" value="Venta" style="swimlane;html=1;fontStyle=0;childLayout=stackLayout;horizontal=1;startSize=35;fillColor=#A8DADC;horizontalStack=0;resizeParent=1;resizeLast=0;collapsible=1;marginBottom=0;swimlaneFillColor=#ffffff;align=center;rounded=1;shadow=0;comic=0;labelBackgroundColor=none;strokeWidth=1;fontFamily=Verdana;fontSize=12;strokeColor=#457B9D;fontColor=#1D3557;" parent="1" vertex="1">
          <mxGeometry x="600" y="580" width="160" height="185" as="geometry" />
        </mxCell>
        <mxCell id="8dd9FDoS5vBMyWjFudpx-109" value="PK&amp;nbsp;&amp;nbsp;id_venta " style="text;html=1;strokeColor=none;fillColor=none;spacingLeft=4;spacingRight=4;whiteSpace=wrap;overflow=hidden;rotatable=0;points=[[0,0.5],[1,0.5]];portConstraint=eastwest;fontStyle=1;labelBackgroundColor=none;fontColor=#1D3557;" parent="8dd9FDoS5vBMyWjFudpx-108" vertex="1">
          <mxGeometry y="35" width="160" height="26" as="geometry" />
        </mxCell>
        <mxCell id="8dd9FDoS5vBMyWjFudpx-111" value=" fecha" style="text;html=1;strokeColor=none;fillColor=none;spacingLeft=4;spacingRight=4;whiteSpace=wrap;overflow=hidden;rotatable=0;points=[[0,0.5],[1,0.5]];portConstraint=eastwest;labelBackgroundColor=none;fontColor=#1D3557;" parent="8dd9FDoS5vBMyWjFudpx-108" vertex="1">
          <mxGeometry y="61" width="160" height="32" as="geometry" />
        </mxCell>
        <mxCell id="8dd9FDoS5vBMyWjFudpx-113" value="&lt;b&gt;FK&amp;nbsp;&amp;nbsp;id_cliente&lt;/b&gt;" style="text;html=1;strokeColor=none;fillColor=none;spacingLeft=4;spacingRight=4;whiteSpace=wrap;overflow=hidden;rotatable=0;points=[[0,0.5],[1,0.5]];portConstraint=eastwest;labelBackgroundColor=none;fontColor=#1D3557;" parent="8dd9FDoS5vBMyWjFudpx-108" vertex="1">
          <mxGeometry y="93" width="160" height="28" as="geometry" />
        </mxCell>
        <mxCell id="Du0r4xQM6rrGVBfCKi6Y-12" value="&lt;b&gt;FK&amp;nbsp;&amp;nbsp;id_vendedor&lt;/b&gt;" style="text;html=1;strokeColor=none;fillColor=none;spacingLeft=4;spacingRight=4;whiteSpace=wrap;overflow=hidden;rotatable=0;points=[[0,0.5],[1,0.5]];portConstraint=eastwest;labelBackgroundColor=none;fontColor=#1D3557;" parent="8dd9FDoS5vBMyWjFudpx-108" vertex="1">
          <mxGeometry y="121" width="160" height="29" as="geometry" />
        </mxCell>
        <mxCell id="Du0r4xQM6rrGVBfCKi6Y-13" value="&lt;span&gt;precio_total&lt;/span&gt;" style="text;html=1;strokeColor=none;fillColor=none;spacingLeft=4;spacingRight=4;whiteSpace=wrap;overflow=hidden;rotatable=0;points=[[0,0.5],[1,0.5]];portConstraint=eastwest;fontStyle=0;labelBackgroundColor=none;fontColor=#1D3557;" parent="8dd9FDoS5vBMyWjFudpx-108" vertex="1">
          <mxGeometry y="150" width="160" height="29" as="geometry" />
        </mxCell>
        <mxCell id="HfZGZWcqAwXd5LYoIrl5-2" value="Taller" style="swimlane;html=1;fontStyle=0;childLayout=stackLayout;horizontal=1;startSize=26;fillColor=#A8DADC;horizontalStack=0;resizeParent=1;resizeLast=0;collapsible=1;marginBottom=0;swimlaneFillColor=#ffffff;align=center;rounded=1;shadow=0;comic=0;labelBackgroundColor=none;strokeWidth=1;fontFamily=Verdana;fontSize=12;strokeColor=#457B9D;fontColor=#1D3557;" parent="1" vertex="1">
          <mxGeometry x="110" y="390" width="160" height="90" as="geometry" />
        </mxCell>
        <mxCell id="HfZGZWcqAwXd5LYoIrl5-3" value="PK&amp;nbsp; id_taller" style="text;html=1;strokeColor=none;fillColor=none;spacingLeft=4;spacingRight=4;whiteSpace=wrap;overflow=hidden;rotatable=0;points=[[0,0.5],[1,0.5]];portConstraint=eastwest;fontStyle=1;labelBackgroundColor=none;fontColor=#1D3557;" parent="HfZGZWcqAwXd5LYoIrl5-2" vertex="1">
          <mxGeometry y="26" width="160" height="26" as="geometry" />
        </mxCell>
        <mxCell id="HfZGZWcqAwXd5LYoIrl5-4" value="nombre" style="text;html=1;strokeColor=none;fillColor=none;spacingLeft=4;spacingRight=4;whiteSpace=wrap;overflow=hidden;rotatable=0;points=[[0,0.5],[1,0.5]];portConstraint=eastwest;labelBackgroundColor=none;fontColor=#1D3557;" parent="HfZGZWcqAwXd5LYoIrl5-2" vertex="1">
          <mxGeometry y="52" width="160" height="26" as="geometry" />
        </mxCell>
        <mxCell id="HfZGZWcqAwXd5LYoIrl5-9" value=" Vehiculo" style="swimlane;html=1;fontStyle=0;childLayout=stackLayout;horizontal=1;startSize=26;fillColor=#A8DADC;horizontalStack=0;resizeParent=1;resizeLast=0;collapsible=1;marginBottom=0;swimlaneFillColor=#ffffff;align=center;rounded=1;shadow=0;comic=0;labelBackgroundColor=none;strokeWidth=1;fontFamily=Verdana;fontSize=12;strokeColor=#457B9D;fontColor=#1D3557;" parent="1" vertex="1">
          <mxGeometry x="-140" y="860" width="160" height="185" as="geometry" />
        </mxCell>
        <mxCell id="HfZGZWcqAwXd5LYoIrl5-10" value="PK&amp;nbsp;&amp;nbsp;id_vehiculo" style="text;html=1;strokeColor=none;fillColor=none;spacingLeft=4;spacingRight=4;whiteSpace=wrap;overflow=hidden;rotatable=0;points=[[0,0.5],[1,0.5]];portConstraint=eastwest;fontStyle=1;labelBackgroundColor=none;fontColor=#1D3557;" parent="HfZGZWcqAwXd5LYoIrl5-9" vertex="1">
          <mxGeometry y="26" width="160" height="26" as="geometry" />
        </mxCell>
        <mxCell id="HfZGZWcqAwXd5LYoIrl5-11" value="codigo_vehiculo" style="text;html=1;strokeColor=none;fillColor=none;spacingLeft=4;spacingRight=4;whiteSpace=wrap;overflow=hidden;rotatable=0;points=[[0,0.5],[1,0.5]];portConstraint=eastwest;labelBackgroundColor=none;fontColor=#1D3557;" parent="HfZGZWcqAwXd5LYoIrl5-9" vertex="1">
          <mxGeometry y="52" width="160" height="32" as="geometry" />
        </mxCell>
        <mxCell id="HfZGZWcqAwXd5LYoIrl5-12" value="cilindraje" style="text;html=1;strokeColor=none;fillColor=none;spacingLeft=4;spacingRight=4;whiteSpace=wrap;overflow=hidden;rotatable=0;points=[[0,0.5],[1,0.5]];portConstraint=eastwest;labelBackgroundColor=none;fontColor=#1D3557;" parent="HfZGZWcqAwXd5LYoIrl5-9" vertex="1">
          <mxGeometry y="84" width="160" height="32" as="geometry" />
        </mxCell>
        <mxCell id="HfZGZWcqAwXd5LYoIrl5-13" value="linea_vehiculo " style="text;html=1;strokeColor=none;fillColor=none;spacingLeft=4;spacingRight=4;whiteSpace=wrap;overflow=hidden;rotatable=0;points=[[0,0.5],[1,0.5]];portConstraint=eastwest;labelBackgroundColor=none;fontColor=#1D3557;" parent="HfZGZWcqAwXd5LYoIrl5-9" vertex="1">
          <mxGeometry y="116" width="160" height="34" as="geometry" />
        </mxCell>
        <mxCell id="Du0r4xQM6rrGVBfCKi6Y-10" value="FK id_producto" style="text;html=1;strokeColor=none;fillColor=none;spacingLeft=4;spacingRight=4;whiteSpace=wrap;overflow=hidden;rotatable=0;points=[[0,0.5],[1,0.5]];portConstraint=eastwest;fontStyle=1;labelBackgroundColor=none;fontColor=#1D3557;" parent="HfZGZWcqAwXd5LYoIrl5-9" vertex="1">
          <mxGeometry y="150" width="160" height="26" as="geometry" />
        </mxCell>
        <mxCell id="HfZGZWcqAwXd5LYoIrl5-36" value="" style="text;html=1;align=center;verticalAlign=middle;resizable=0;points=[];autosize=1;strokeColor=none;fillColor=none;labelBackgroundColor=none;fontColor=#1D3557;" parent="1" vertex="1">
          <mxGeometry x="740" y="140" width="30" height="30" as="geometry" />
        </mxCell>
        <mxCell id="Du0r4xQM6rrGVBfCKi6Y-14" value="DetalleVenta" style="swimlane;html=1;fontStyle=0;childLayout=stackLayout;horizontal=1;startSize=26;fillColor=#A8DADC;horizontalStack=0;resizeParent=1;resizeLast=0;collapsible=1;marginBottom=0;swimlaneFillColor=#ffffff;align=center;rounded=1;shadow=0;comic=0;labelBackgroundColor=none;strokeWidth=1;fontFamily=Verdana;fontSize=12;strokeColor=#457B9D;fontColor=#1D3557;" parent="1" vertex="1">
          <mxGeometry x="600" y="820" width="160" height="294" as="geometry" />
        </mxCell>
        <mxCell id="Du0r4xQM6rrGVBfCKi6Y-15" value="PK&amp;nbsp;&amp;nbsp; id_detalle" style="text;html=1;strokeColor=none;fillColor=none;spacingLeft=4;spacingRight=4;whiteSpace=wrap;overflow=hidden;rotatable=0;points=[[0,0.5],[1,0.5]];portConstraint=eastwest;fontStyle=1;labelBackgroundColor=none;fontColor=#1D3557;" parent="Du0r4xQM6rrGVBfCKi6Y-14" vertex="1">
          <mxGeometry y="26" width="160" height="26" as="geometry" />
        </mxCell>
        <mxCell id="Du0r4xQM6rrGVBfCKi6Y-16" value="cantidad" style="text;html=1;strokeColor=none;fillColor=none;spacingLeft=4;spacingRight=4;whiteSpace=wrap;overflow=hidden;rotatable=0;points=[[0,0.5],[1,0.5]];portConstraint=eastwest;labelBackgroundColor=none;fontColor=#1D3557;" parent="Du0r4xQM6rrGVBfCKi6Y-14" vertex="1">
          <mxGeometry y="52" width="160" height="26" as="geometry" />
        </mxCell>
        <mxCell id="Du0r4xQM6rrGVBfCKi6Y-17" value=" precio_unitario" style="text;html=1;strokeColor=none;fillColor=none;spacingLeft=4;spacingRight=4;whiteSpace=wrap;overflow=hidden;rotatable=0;points=[[0,0.5],[1,0.5]];portConstraint=eastwest;labelBackgroundColor=none;fontColor=#1D3557;" parent="Du0r4xQM6rrGVBfCKi6Y-14" vertex="1">
          <mxGeometry y="78" width="160" height="32" as="geometry" />
        </mxCell>
        <mxCell id="Du0r4xQM6rrGVBfCKi6Y-18" value="ciudad" style="text;html=1;strokeColor=none;fillColor=none;spacingLeft=4;spacingRight=4;whiteSpace=wrap;overflow=hidden;rotatable=0;points=[[0,0.5],[1,0.5]];portConstraint=eastwest;labelBackgroundColor=none;fontColor=#1D3557;" parent="Du0r4xQM6rrGVBfCKi6Y-14" vertex="1">
          <mxGeometry y="110" width="160" height="32" as="geometry" />
        </mxCell>
        <mxCell id="Du0r4xQM6rrGVBfCKi6Y-19" value=" Cantidad" style="text;html=1;strokeColor=none;fillColor=none;spacingLeft=4;spacingRight=4;whiteSpace=wrap;overflow=hidden;rotatable=0;points=[[0,0.5],[1,0.5]];portConstraint=eastwest;labelBackgroundColor=none;fontColor=#1D3557;" parent="Du0r4xQM6rrGVBfCKi6Y-14" vertex="1">
          <mxGeometry y="142" width="160" height="28" as="geometry" />
        </mxCell>
        <mxCell id="Du0r4xQM6rrGVBfCKi6Y-20" value="  Precio Unitario" style="text;html=1;strokeColor=none;fillColor=none;spacingLeft=4;spacingRight=4;whiteSpace=wrap;overflow=hidden;rotatable=0;points=[[0,0.5],[1,0.5]];portConstraint=eastwest;labelBackgroundColor=none;fontColor=#1D3557;" parent="Du0r4xQM6rrGVBfCKi6Y-14" vertex="1">
          <mxGeometry y="170" width="160" height="28" as="geometry" />
        </mxCell>
        <mxCell id="Du0r4xQM6rrGVBfCKi6Y-22" value="&amp;nbsp;Tipo de Producto" style="text;html=1;strokeColor=none;fillColor=none;spacingLeft=4;spacingRight=4;whiteSpace=wrap;overflow=hidden;rotatable=0;points=[[0,0.5],[1,0.5]];portConstraint=eastwest;labelBackgroundColor=none;fontColor=#1D3557;" parent="Du0r4xQM6rrGVBfCKi6Y-14" vertex="1">
          <mxGeometry y="198" width="160" height="32" as="geometry" />
        </mxCell>
        <mxCell id="Du0r4xQM6rrGVBfCKi6Y-21" value="&lt;b&gt;FK id_venta&lt;/b&gt;" style="text;html=1;strokeColor=none;fillColor=none;spacingLeft=4;spacingRight=4;whiteSpace=wrap;overflow=hidden;rotatable=0;points=[[0,0.5],[1,0.5]];portConstraint=eastwest;labelBackgroundColor=none;fontColor=#1D3557;" parent="Du0r4xQM6rrGVBfCKi6Y-14" vertex="1">
          <mxGeometry y="230" width="160" height="32" as="geometry" />
        </mxCell>
        <mxCell id="Du0r4xQM6rrGVBfCKi6Y-23" value="&lt;b&gt;FK id_producto&lt;/b&gt;" style="text;html=1;strokeColor=none;fillColor=none;spacingLeft=4;spacingRight=4;whiteSpace=wrap;overflow=hidden;rotatable=0;points=[[0,0.5],[1,0.5]];portConstraint=eastwest;labelBackgroundColor=none;fontColor=#1D3557;" parent="Du0r4xQM6rrGVBfCKi6Y-14" vertex="1">
          <mxGeometry y="262" width="160" height="32" as="geometry" />
        </mxCell>
        <mxCell id="Du0r4xQM6rrGVBfCKi6Y-24" value="Producto_taller" style="swimlane;html=1;fontStyle=0;childLayout=stackLayout;horizontal=1;startSize=35;fillColor=#A8DADC;horizontalStack=0;resizeParent=1;resizeLast=0;collapsible=1;marginBottom=0;swimlaneFillColor=#ffffff;align=center;rounded=1;shadow=0;comic=0;labelBackgroundColor=none;strokeWidth=1;fontFamily=Verdana;fontSize=12;strokeColor=#457B9D;fontColor=#1D3557;" parent="1" vertex="1">
          <mxGeometry x="340" y="470" width="160" height="130" as="geometry" />
        </mxCell>
        <mxCell id="Du0r4xQM6rrGVBfCKi6Y-25" value="PK&amp;nbsp;&amp;nbsp;   id_producto_taller " style="text;html=1;strokeColor=none;fillColor=none;spacingLeft=4;spacingRight=4;whiteSpace=wrap;overflow=hidden;rotatable=0;points=[[0,0.5],[1,0.5]];portConstraint=eastwest;fontStyle=1;labelBackgroundColor=none;fontColor=#1D3557;" parent="Du0r4xQM6rrGVBfCKi6Y-24" vertex="1">
          <mxGeometry y="35" width="160" height="26" as="geometry" />
        </mxCell>
        <mxCell id="Du0r4xQM6rrGVBfCKi6Y-27" value="&lt;b&gt;FK&amp;nbsp;&amp;nbsp;id_taller&lt;/b&gt;" style="text;html=1;strokeColor=none;fillColor=none;spacingLeft=4;spacingRight=4;whiteSpace=wrap;overflow=hidden;rotatable=0;points=[[0,0.5],[1,0.5]];portConstraint=eastwest;labelBackgroundColor=none;fontColor=#1D3557;" parent="Du0r4xQM6rrGVBfCKi6Y-24" vertex="1">
          <mxGeometry y="61" width="160" height="28" as="geometry" />
        </mxCell>
        <mxCell id="Du0r4xQM6rrGVBfCKi6Y-28" value="&lt;b&gt;FK&amp;nbsp;&amp;nbsp;id_producto&lt;/b&gt;&lt;div&gt;&lt;b&gt;&lt;br&gt;&lt;/b&gt;&lt;/div&gt;" style="text;html=1;strokeColor=none;fillColor=none;spacingLeft=4;spacingRight=4;whiteSpace=wrap;overflow=hidden;rotatable=0;points=[[0,0.5],[1,0.5]];portConstraint=eastwest;labelBackgroundColor=none;fontColor=#1D3557;" parent="Du0r4xQM6rrGVBfCKi6Y-24" vertex="1">
          <mxGeometry y="89" width="160" height="29" as="geometry" />
        </mxCell>
        <mxCell id="Du0r4xQM6rrGVBfCKi6Y-36" value="" style="endArrow=none;html=1;rounded=0;strokeColor=#457B9D;fontColor=#1D3557;fillColor=#A8DADC;entryX=0.505;entryY=1.208;entryDx=0;entryDy=0;entryPerimeter=0;" parent="1" source="Du0r4xQM6rrGVBfCKi6Y-14" target="Du0r4xQM6rrGVBfCKi6Y-13" edge="1">
          <mxGeometry width="50" height="50" relative="1" as="geometry">
            <mxPoint x="655" y="820" as="sourcePoint" />
            <mxPoint x="705" y="770" as="targetPoint" />
          </mxGeometry>
        </mxCell>
        <mxCell id="Du0r4xQM6rrGVBfCKi6Y-37" value="" style="endArrow=none;html=1;rounded=0;strokeColor=#457B9D;fontColor=#1D3557;fillColor=#A8DADC;exitX=0.5;exitY=0;exitDx=0;exitDy=0;" parent="1" source="8dd9FDoS5vBMyWjFudpx-54" edge="1">
          <mxGeometry width="50" height="50" relative="1" as="geometry">
            <mxPoint x="840" y="700.5" as="sourcePoint" />
            <mxPoint x="760" y="700" as="targetPoint" />
            <Array as="points">
              <mxPoint x="920" y="700" />
            </Array>
          </mxGeometry>
        </mxCell>
        <mxCell id="Du0r4xQM6rrGVBfCKi6Y-38" value="" style="endArrow=none;html=1;rounded=0;strokeColor=#457B9D;fontColor=#1D3557;fillColor=#A8DADC;exitX=0.5;exitY=1;exitDx=0;exitDy=0;" parent="1" source="8dd9FDoS5vBMyWjFudpx-32" edge="1">
          <mxGeometry width="50" height="50" relative="1" as="geometry">
            <mxPoint x="920" y="810" as="sourcePoint" />
            <mxPoint x="760" y="700" as="targetPoint" />
            <Array as="points">
              <mxPoint x="920" y="700" />
            </Array>
          </mxGeometry>
        </mxCell>
        <mxCell id="Du0r4xQM6rrGVBfCKi6Y-39" value="" style="endArrow=none;html=1;rounded=0;strokeColor=#457B9D;fontColor=#1D3557;fillColor=#A8DADC;exitX=-0.031;exitY=0.83;exitDx=0;exitDy=0;exitPerimeter=0;entryX=0.5;entryY=1;entryDx=0;entryDy=0;" parent="1" source="Du0r4xQM6rrGVBfCKi6Y-18" target="8dd9FDoS5vBMyWjFudpx-62" edge="1">
          <mxGeometry width="50" height="50" relative="1" as="geometry">
            <mxPoint x="570" y="890" as="sourcePoint" />
            <mxPoint x="410" y="1000" as="targetPoint" />
            <Array as="points">
              <mxPoint x="180" y="957" />
            </Array>
          </mxGeometry>
        </mxCell>
        <mxCell id="Du0r4xQM6rrGVBfCKi6Y-40" value="" style="endArrow=none;html=1;rounded=0;strokeColor=#457B9D;fontColor=#1D3557;fillColor=#A8DADC;entryX=0.5;entryY=1;entryDx=0;entryDy=0;exitX=0.568;exitY=-0.013;exitDx=0;exitDy=0;exitPerimeter=0;" parent="1" source="8dd9FDoS5vBMyWjFudpx-62" target="HfZGZWcqAwXd5LYoIrl5-2" edge="1">
          <mxGeometry width="50" height="50" relative="1" as="geometry">
            <mxPoint x="170" y="610" as="sourcePoint" />
            <mxPoint x="220" y="560" as="targetPoint" />
          </mxGeometry>
        </mxCell>
        <mxCell id="Du0r4xQM6rrGVBfCKi6Y-41" value="" style="endArrow=none;html=1;rounded=0;strokeColor=#457B9D;fontColor=#1D3557;fillColor=#A8DADC;exitX=0.362;exitY=-0.004;exitDx=0;exitDy=0;exitPerimeter=0;" parent="1" source="HfZGZWcqAwXd5LYoIrl5-9" edge="1">
          <mxGeometry width="50" height="50" relative="1" as="geometry">
            <mxPoint x="-80" y="670" as="sourcePoint" />
            <mxPoint x="100" y="760" as="targetPoint" />
            <Array as="points">
              <mxPoint x="-80" y="760" />
            </Array>
          </mxGeometry>
        </mxCell>
        <mxCell id="Du0r4xQM6rrGVBfCKi6Y-42" value="" style="endArrow=none;html=1;rounded=0;strokeColor=#457B9D;fontColor=#1D3557;fillColor=#A8DADC;entryX=-0.001;entryY=0.188;entryDx=0;entryDy=0;entryPerimeter=0;" parent="1" target="HfZGZWcqAwXd5LYoIrl5-8" edge="1">
          <mxGeometry width="50" height="50" relative="1" as="geometry">
            <mxPoint x="-80" y="670" as="sourcePoint" />
            <mxPoint x="100" y="770" as="targetPoint" />
            <Array as="points">
              <mxPoint x="-80" y="758" />
            </Array>
          </mxGeometry>
        </mxCell>
        <mxCell id="Du0r4xQM6rrGVBfCKi6Y-43" value="" style="endArrow=none;html=1;rounded=0;strokeColor=#457B9D;fontColor=#1D3557;fillColor=#A8DADC;entryX=1;entryY=0.5;entryDx=0;entryDy=0;" parent="1" target="8dd9FDoS5vBMyWjFudpx-2" edge="1">
          <mxGeometry width="50" height="50" relative="1" as="geometry">
            <mxPoint x="930" y="960" as="sourcePoint" />
            <mxPoint x="472.5" y="1179.5" as="targetPoint" />
            <Array as="points">
              <mxPoint x="930" y="1280" />
              <mxPoint x="450" y="1280" />
            </Array>
          </mxGeometry>
        </mxCell>
        <mxCell id="Du0r4xQM6rrGVBfCKi6Y-44" value="" style="endArrow=none;html=1;rounded=0;strokeColor=#457B9D;fontColor=#1D3557;fillColor=#A8DADC;" parent="1" edge="1">
          <mxGeometry width="50" height="50" relative="1" as="geometry">
            <mxPoint x="440" y="467" as="sourcePoint" />
            <mxPoint x="270" y="430" as="targetPoint" />
            <Array as="points">
              <mxPoint x="440" y="430" />
            </Array>
          </mxGeometry>
        </mxCell>
        <mxCell id="Du0r4xQM6rrGVBfCKi6Y-46" value="Entidad debil entre TALLER- PRODCUTO" style="text;html=1;align=center;verticalAlign=middle;resizable=0;points=[];autosize=1;strokeColor=#d6b656;fillColor=#fff2cc;" parent="1" vertex="1">
          <mxGeometry x="470" y="425" width="250" height="30" as="geometry" />
        </mxCell>
        <mxCell id="Du0r4xQM6rrGVBfCKi6Y-49" value="&lt;table class=&quot;MsoNormalTable&quot; border=&quot;0&quot; cellspacing=&quot;0&quot; cellpadding=&quot;0&quot; align=&quot;right&quot; width=&quot;660&quot; style=&quot;border-collapse:collapse;mso-table-layout-alt:fixed;&#xa; mso-yfti-tbllook:1184;mso-table-lspace:7.05pt;margin-left:4.8pt;mso-table-rspace:&#xa; 7.05pt;margin-right:4.8pt;mso-table-bspace:8.0pt;margin-bottom:5.75pt;&#xa; mso-table-anchor-vertical:margin;mso-table-anchor-horizontal:margin;&#xa; mso-table-left:right;mso-table-top:-19.8pt;mso-padding-alt:0cm 3.5pt 0cm 3.5pt&quot;&gt;&#xa; &lt;tbody&gt;&lt;tr style=&quot;mso-yfti-irow:0;mso-yfti-firstrow:yes;height:44.6pt&quot;&gt;&#xa;  &lt;td width=&quot;91&quot; valign=&quot;top&quot; style=&quot;width:68.6pt;border:solid windowtext 1.0pt;&#xa;  mso-border-alt:solid windowtext .75pt;padding:0cm 3.5pt 0cm 3.5pt;height:&#xa;  44.6pt&quot;&gt;&#xa;  &lt;p class=&quot;MsoNormal&quot; align=&quot;center&quot; style=&quot;margin-bottom:0cm;text-align:center;&#xa;  line-height:normal;mso-layout-grid-align:none;text-autospace:none;mso-element:&#xa;  frame;mso-element-frame-hspace:7.05pt;mso-element-wrap:around;mso-element-anchor-horizontal:&#xa;  margin;mso-element-left:right;mso-element-top:-19.8pt;mso-height-rule:exactly&quot;&gt;&lt;b&gt;&lt;span style=&quot;mso-ascii-font-family:Calibri;mso-hansi-font-family:Calibri;&#xa;  mso-bidi-font-family:Calibri;color:black;background:yellow;mso-highlight:&#xa;  yellow;mso-font-kerning:0pt&quot;&gt;Entidad Principal&lt;/span&gt;&lt;/b&gt;&lt;/p&gt;&#xa;  &lt;/td&gt;&#xa;  &lt;td width=&quot;202&quot; valign=&quot;top&quot; style=&quot;width:151.85pt;border:solid windowtext 1.0pt;&#xa;  border-left:none;mso-border-left-alt:solid windowtext .75pt;mso-border-alt:&#xa;  solid windowtext .75pt;padding:0cm 3.5pt 0cm 3.5pt;height:44.6pt&quot;&gt;&#xa;  &lt;p class=&quot;MsoNormal&quot; align=&quot;center&quot; style=&quot;margin-bottom:0cm;text-align:center;&#xa;  line-height:normal;mso-layout-grid-align:none;text-autospace:none;mso-element:&#xa;  frame;mso-element-frame-hspace:7.05pt;mso-element-wrap:around;mso-element-anchor-horizontal:&#xa;  margin;mso-element-left:right;mso-element-top:-19.8pt;mso-height-rule:exactly&quot;&gt;&lt;b&gt;&lt;span style=&quot;mso-ascii-font-family:Calibri;mso-hansi-font-family:Calibri;&#xa;  mso-bidi-font-family:Calibri;color:black;background:yellow;mso-highlight:&#xa;  yellow;mso-font-kerning:0pt&quot;&gt;Relación con Entidad Secundaria&lt;/span&gt;&lt;/b&gt;&lt;/p&gt;&#xa;  &lt;/td&gt;&#xa;  &lt;td width=&quot;91&quot; valign=&quot;top&quot; style=&quot;width:68.6pt;border:solid windowtext 1.0pt;&#xa;  border-left:none;mso-border-left-alt:solid windowtext .75pt;mso-border-alt:&#xa;  solid windowtext .75pt;padding:0cm 3.5pt 0cm 3.5pt;height:44.6pt&quot;&gt;&#xa;  &lt;p class=&quot;MsoNormal&quot; align=&quot;center&quot; style=&quot;margin-bottom:0cm;text-align:center;&#xa;  line-height:normal;mso-layout-grid-align:none;text-autospace:none;mso-element:&#xa;  frame;mso-element-frame-hspace:7.05pt;mso-element-wrap:around;mso-element-anchor-horizontal:&#xa;  margin;mso-element-left:right;mso-element-top:-19.8pt;mso-height-rule:exactly&quot;&gt;&lt;b&gt;&lt;span style=&quot;mso-ascii-font-family:Calibri;mso-hansi-font-family:Calibri;&#xa;  mso-bidi-font-family:Calibri;color:black;background:yellow;mso-highlight:&#xa;  yellow;mso-font-kerning:0pt&quot;&gt;Cardinalidad&lt;/span&gt;&lt;/b&gt;&lt;/p&gt;&#xa;  &lt;/td&gt;&#xa;  &lt;td width=&quot;91&quot; valign=&quot;top&quot; style=&quot;width:68.6pt;border:solid windowtext 1.0pt;&#xa;  border-left:none;mso-border-left-alt:solid windowtext .75pt;mso-border-alt:&#xa;  solid windowtext .75pt;padding:0cm 3.5pt 0cm 3.5pt;height:44.6pt&quot;&gt;&#xa;  &lt;p class=&quot;MsoNormal&quot; align=&quot;center&quot; style=&quot;margin-bottom:0cm;text-align:center;&#xa;  line-height:normal;mso-layout-grid-align:none;text-autospace:none;mso-element:&#xa;  frame;mso-element-frame-hspace:7.05pt;mso-element-wrap:around;mso-element-anchor-horizontal:&#xa;  margin;mso-element-left:right;mso-element-top:-19.8pt;mso-height-rule:exactly&quot;&gt;&lt;b&gt;&lt;span style=&quot;mso-ascii-font-family:Calibri;mso-hansi-font-family:Calibri;&#xa;  mso-bidi-font-family:Calibri;color:black;background:yellow;mso-highlight:&#xa;  yellow;mso-font-kerning:0pt&quot;&gt;Entidad Secundaria&lt;/span&gt;&lt;/b&gt;&lt;/p&gt;&#xa;  &lt;/td&gt;&#xa;  &lt;td width=&quot;91&quot; valign=&quot;top&quot; style=&quot;width:68.6pt;border:solid windowtext 1.0pt;&#xa;  border-left:none;mso-border-left-alt:solid windowtext .75pt;mso-border-alt:&#xa;  solid windowtext .75pt;padding:0cm 3.5pt 0cm 3.5pt;height:44.6pt&quot;&gt;&#xa;  &lt;p class=&quot;MsoNormal&quot; align=&quot;center&quot; style=&quot;margin-bottom:0cm;text-align:center;&#xa;  line-height:normal;mso-layout-grid-align:none;text-autospace:none;mso-element:&#xa;  frame;mso-element-frame-hspace:7.05pt;mso-element-wrap:around;mso-element-anchor-horizontal:&#xa;  margin;mso-element-left:right;mso-element-top:-19.8pt;mso-height-rule:exactly&quot;&gt;&lt;b&gt;&lt;span style=&quot;mso-ascii-font-family:Calibri;mso-hansi-font-family:Calibri;&#xa;  mso-bidi-font-family:Calibri;color:black;background:yellow;mso-highlight:&#xa;  yellow;mso-font-kerning:0pt&quot;&gt;Relación Inversa&lt;/span&gt;&lt;/b&gt;&lt;/p&gt;&#xa;  &lt;/td&gt;&#xa;  &lt;td width=&quot;91&quot; valign=&quot;top&quot; style=&quot;width:68.6pt;border:solid windowtext 1.0pt;&#xa;  border-left:none;mso-border-left-alt:solid windowtext .75pt;mso-border-alt:&#xa;  solid windowtext .75pt;padding:0cm 3.5pt 0cm 3.5pt;height:44.6pt&quot;&gt;&#xa;  &lt;p class=&quot;MsoNormal&quot; align=&quot;center&quot; style=&quot;margin-bottom:0cm;text-align:center;&#xa;  line-height:normal;mso-layout-grid-align:none;text-autospace:none;mso-element:&#xa;  frame;mso-element-frame-hspace:7.05pt;mso-element-wrap:around;mso-element-anchor-horizontal:&#xa;  margin;mso-element-left:right;mso-element-top:-19.8pt;mso-height-rule:exactly&quot;&gt;&lt;b&gt;&lt;span style=&quot;mso-ascii-font-family:Calibri;mso-hansi-font-family:Calibri;&#xa;  mso-bidi-font-family:Calibri;color:black;background:yellow;mso-highlight:&#xa;  yellow;mso-font-kerning:0pt&quot;&gt;Cardinalidad Inversa&lt;/span&gt;&lt;/b&gt;&lt;/p&gt;&#xa;  &lt;/td&gt;&#xa; &lt;/tr&gt;&#xa; &lt;tr style=&quot;mso-yfti-irow:1;height:22.2pt&quot;&gt;&#xa;  &lt;td width=&quot;91&quot; valign=&quot;top&quot; style=&quot;width:68.6pt;border:solid windowtext 1.0pt;&#xa;  border-top:none;mso-border-top-alt:solid windowtext .75pt;mso-border-alt:&#xa;  solid windowtext .75pt;padding:0cm 3.5pt 0cm 3.5pt;height:22.2pt&quot;&gt;&#xa;  &lt;p class=&quot;MsoNormal&quot; align=&quot;center&quot; style=&quot;margin-bottom:0cm;text-align:center;&#xa;  line-height:normal;mso-layout-grid-align:none;text-autospace:none;mso-element:&#xa;  frame;mso-element-frame-hspace:7.05pt;mso-element-wrap:around;mso-element-anchor-horizontal:&#xa;  margin;mso-element-left:right;mso-element-top:-19.8pt;mso-height-rule:exactly&quot;&gt;&lt;b&gt;&lt;span style=&quot;mso-ascii-font-family:Calibri;mso-hansi-font-family:Calibri;&#xa;  mso-bidi-font-family:Calibri;color:black;mso-font-kerning:0pt&quot;&gt;Taller&lt;/span&gt;&lt;/b&gt;&lt;/p&gt;&#xa;  &lt;/td&gt;&#xa;  &lt;td width=&quot;202&quot; valign=&quot;top&quot; style=&quot;width:151.85pt;border-top:none;border-left:&#xa;  none;border-bottom:solid windowtext 1.0pt;border-right:solid windowtext 1.0pt;&#xa;  mso-border-top-alt:solid windowtext .75pt;mso-border-left-alt:solid windowtext .75pt;&#xa;  mso-border-alt:solid windowtext .75pt;padding:0cm 3.5pt 0cm 3.5pt;height:&#xa;  22.2pt&quot;&gt;&#xa;  &lt;p class=&quot;MsoNormal&quot; align=&quot;center&quot; style=&quot;margin-bottom:0cm;text-align:center;&#xa;  line-height:normal;mso-layout-grid-align:none;text-autospace:none;mso-element:&#xa;  frame;mso-element-frame-hspace:7.05pt;mso-element-wrap:around;mso-element-anchor-horizontal:&#xa;  margin;mso-element-left:right;mso-element-top:-19.8pt;mso-height-rule:exactly&quot;&gt;&lt;b&gt;&lt;span style=&quot;mso-ascii-font-family:Calibri;mso-hansi-font-family:Calibri;&#xa;  mso-bidi-font-family:Calibri;color:black;mso-font-kerning:0pt&quot;&gt;Producto_Taller&lt;/span&gt;&lt;/b&gt;&lt;/p&gt;&#xa;  &lt;/td&gt;&#xa;  &lt;td width=&quot;91&quot; valign=&quot;top&quot; style=&quot;width:68.6pt;border-top:none;border-left:none;&#xa;  border-bottom:solid windowtext 1.0pt;border-right:solid windowtext 1.0pt;&#xa;  mso-border-top-alt:solid windowtext .75pt;mso-border-left-alt:solid windowtext .75pt;&#xa;  mso-border-alt:solid windowtext .75pt;padding:0cm 3.5pt 0cm 3.5pt;height:&#xa;  22.2pt&quot;&gt;&#xa;  &lt;p class=&quot;MsoNormal&quot; align=&quot;center&quot; style=&quot;margin-bottom:0cm;text-align:center;&#xa;  line-height:normal;mso-layout-grid-align:none;text-autospace:none;mso-element:&#xa;  frame;mso-element-frame-hspace:7.05pt;mso-element-wrap:around;mso-element-anchor-horizontal:&#xa;  margin;mso-element-left:right;mso-element-top:-19.8pt;mso-height-rule:exactly&quot;&gt;&lt;span style=&quot;mso-ascii-font-family:Calibri;mso-hansi-font-family:Calibri;&#xa;  mso-bidi-font-family:Calibri;color:black;mso-font-kerning:0pt&quot;&gt;1:N&lt;/span&gt;&lt;/p&gt;&#xa;  &lt;/td&gt;&#xa;  &lt;td width=&quot;91&quot; valign=&quot;top&quot; style=&quot;width:68.6pt;border-top:none;border-left:none;&#xa;  border-bottom:solid windowtext 1.0pt;border-right:solid windowtext 1.0pt;&#xa;  mso-border-top-alt:solid windowtext .75pt;mso-border-left-alt:solid windowtext .75pt;&#xa;  mso-border-alt:solid windowtext .75pt;padding:0cm 3.5pt 0cm 3.5pt;height:&#xa;  22.2pt&quot;&gt;&#xa;  &lt;p class=&quot;MsoNormal&quot; align=&quot;center&quot; style=&quot;margin-bottom:0cm;text-align:center;&#xa;  line-height:normal;mso-layout-grid-align:none;text-autospace:none;mso-element:&#xa;  frame;mso-element-frame-hspace:7.05pt;mso-element-wrap:around;mso-element-anchor-horizontal:&#xa;  margin;mso-element-left:right;mso-element-top:-19.8pt;mso-height-rule:exactly&quot;&gt;&lt;b&gt;&lt;span style=&quot;mso-ascii-font-family:Calibri;mso-hansi-font-family:Calibri;&#xa;  mso-bidi-font-family:Calibri;color:black;mso-font-kerning:0pt&quot;&gt;Taller&lt;/span&gt;&lt;/b&gt;&lt;/p&gt;&#xa;  &lt;/td&gt;&#xa;  &lt;td width=&quot;91&quot; valign=&quot;top&quot; style=&quot;width:68.6pt;border-top:none;border-left:none;&#xa;  border-bottom:solid windowtext 1.0pt;border-right:solid windowtext 1.0pt;&#xa;  mso-border-top-alt:solid windowtext .75pt;mso-border-left-alt:solid windowtext .75pt;&#xa;  mso-border-alt:solid windowtext .75pt;padding:0cm 3.5pt 0cm 3.5pt;height:&#xa;  22.2pt&quot;&gt;&#xa;  &lt;p class=&quot;MsoNormal&quot; align=&quot;center&quot; style=&quot;margin-bottom:0cm;text-align:center;&#xa;  line-height:normal;mso-layout-grid-align:none;text-autospace:none;mso-element:&#xa;  frame;mso-element-frame-hspace:7.05pt;mso-element-wrap:around;mso-element-anchor-horizontal:&#xa;  margin;mso-element-left:right;mso-element-top:-19.8pt;mso-height-rule:exactly&quot;&gt;&lt;b&gt;&lt;span style=&quot;mso-ascii-font-family:Calibri;mso-hansi-font-family:Calibri;&#xa;  mso-bidi-font-family:Calibri;color:black;mso-font-kerning:0pt&quot;&gt;Producto_Taller&lt;/span&gt;&lt;/b&gt;&lt;/p&gt;&#xa;  &lt;/td&gt;&#xa;  &lt;td width=&quot;91&quot; valign=&quot;top&quot; style=&quot;width:68.6pt;border-top:none;border-left:none;&#xa;  border-bottom:solid windowtext 1.0pt;border-right:solid windowtext 1.0pt;&#xa;  mso-border-top-alt:solid windowtext .75pt;mso-border-left-alt:solid windowtext .75pt;&#xa;  mso-border-alt:solid windowtext .75pt;padding:0cm 3.5pt 0cm 3.5pt;height:&#xa;  22.2pt&quot;&gt;&#xa;  &lt;p class=&quot;MsoNormal&quot; align=&quot;center&quot; style=&quot;margin-bottom:0cm;text-align:center;&#xa;  line-height:normal;mso-layout-grid-align:none;text-autospace:none;mso-element:&#xa;  frame;mso-element-frame-hspace:7.05pt;mso-element-wrap:around;mso-element-anchor-horizontal:&#xa;  margin;mso-element-left:right;mso-element-top:-19.8pt;mso-height-rule:exactly&quot;&gt;&lt;span style=&quot;mso-ascii-font-family:Calibri;mso-hansi-font-family:Calibri;&#xa;  mso-bidi-font-family:Calibri;color:black;mso-font-kerning:0pt&quot;&gt;N:1&lt;/span&gt;&lt;/p&gt;&#xa;  &lt;/td&gt;&#xa; &lt;/tr&gt;&#xa; &lt;tr style=&quot;mso-yfti-irow:2;height:14.85pt&quot;&gt;&#xa;  &lt;td width=&quot;91&quot; valign=&quot;top&quot; style=&quot;width:68.6pt;border:solid windowtext 1.0pt;&#xa;  border-top:none;mso-border-top-alt:solid windowtext .75pt;mso-border-alt:&#xa;  solid windowtext .75pt;padding:0cm 3.5pt 0cm 3.5pt;height:14.85pt&quot;&gt;&#xa;  &lt;p class=&quot;MsoNormal&quot; align=&quot;center&quot; style=&quot;margin-bottom:0cm;text-align:center;&#xa;  line-height:normal;mso-layout-grid-align:none;text-autospace:none;mso-element:&#xa;  frame;mso-element-frame-hspace:7.05pt;mso-element-wrap:around;mso-element-anchor-horizontal:&#xa;  margin;mso-element-left:right;mso-element-top:-19.8pt;mso-height-rule:exactly&quot;&gt;&lt;b&gt;&lt;span style=&quot;mso-ascii-font-family:Calibri;mso-hansi-font-family:Calibri;&#xa;  mso-bidi-font-family:Calibri;color:black;mso-font-kerning:0pt&quot;&gt;Producto&lt;/span&gt;&lt;/b&gt;&lt;/p&gt;&#xa;  &lt;/td&gt;&#xa;  &lt;td width=&quot;202&quot; valign=&quot;top&quot; style=&quot;width:151.85pt;border-top:none;border-left:&#xa;  none;border-bottom:solid windowtext 1.0pt;border-right:solid windowtext 1.0pt;&#xa;  mso-border-top-alt:solid windowtext .75pt;mso-border-left-alt:solid windowtext .75pt;&#xa;  mso-border-alt:solid windowtext .75pt;padding:0cm 3.5pt 0cm 3.5pt;height:&#xa;  14.85pt&quot;&gt;&#xa;  &lt;p class=&quot;MsoNormal&quot; align=&quot;center&quot; style=&quot;margin-bottom:0cm;text-align:center;&#xa;  line-height:normal;mso-layout-grid-align:none;text-autospace:none;mso-element:&#xa;  frame;mso-element-frame-hspace:7.05pt;mso-element-wrap:around;mso-element-anchor-horizontal:&#xa;  margin;mso-element-left:right;mso-element-top:-19.8pt;mso-height-rule:exactly&quot;&gt;&lt;b&gt;&lt;span style=&quot;mso-ascii-font-family:Calibri;mso-hansi-font-family:Calibri;&#xa;  mso-bidi-font-family:Calibri;color:black;mso-font-kerning:0pt&quot;&gt;Insumo&lt;/span&gt;&lt;/b&gt;&lt;/p&gt;&#xa;  &lt;/td&gt;&#xa;  &lt;td width=&quot;91&quot; valign=&quot;top&quot; style=&quot;width:68.6pt;border-top:none;border-left:none;&#xa;  border-bottom:solid windowtext 1.0pt;border-right:solid windowtext 1.0pt;&#xa;  mso-border-top-alt:solid windowtext .75pt;mso-border-left-alt:solid windowtext .75pt;&#xa;  mso-border-alt:solid windowtext .75pt;padding:0cm 3.5pt 0cm 3.5pt;height:&#xa;  14.85pt&quot;&gt;&#xa;  &lt;p class=&quot;MsoNormal&quot; align=&quot;center&quot; style=&quot;margin-bottom:0cm;text-align:center;&#xa;  line-height:normal;mso-layout-grid-align:none;text-autospace:none;mso-element:&#xa;  frame;mso-element-frame-hspace:7.05pt;mso-element-wrap:around;mso-element-anchor-horizontal:&#xa;  margin;mso-element-left:right;mso-element-top:-19.8pt;mso-height-rule:exactly&quot;&gt;&lt;span style=&quot;mso-ascii-font-family:Calibri;mso-hansi-font-family:Calibri;&#xa;  mso-bidi-font-family:Calibri;color:black;mso-font-kerning:0pt&quot;&gt;1:N&lt;/span&gt;&lt;/p&gt;&#xa;  &lt;/td&gt;&#xa;  &lt;td width=&quot;91&quot; valign=&quot;top&quot; style=&quot;width:68.6pt;border-top:none;border-left:none;&#xa;  border-bottom:solid windowtext 1.0pt;border-right:solid windowtext 1.0pt;&#xa;  mso-border-top-alt:solid windowtext .75pt;mso-border-left-alt:solid windowtext .75pt;&#xa;  mso-border-alt:solid windowtext .75pt;padding:0cm 3.5pt 0cm 3.5pt;height:&#xa;  14.85pt&quot;&gt;&#xa;  &lt;p class=&quot;MsoNormal&quot; align=&quot;center&quot; style=&quot;margin-bottom:0cm;text-align:center;&#xa;  line-height:normal;mso-layout-grid-align:none;text-autospace:none;mso-element:&#xa;  frame;mso-element-frame-hspace:7.05pt;mso-element-wrap:around;mso-element-anchor-horizontal:&#xa;  margin;mso-element-left:right;mso-element-top:-19.8pt;mso-height-rule:exactly&quot;&gt;&lt;b&gt;&lt;span style=&quot;mso-ascii-font-family:Calibri;mso-hansi-font-family:Calibri;&#xa;  mso-bidi-font-family:Calibri;color:black;mso-font-kerning:0pt&quot;&gt;Insumo&lt;/span&gt;&lt;/b&gt;&lt;/p&gt;&#xa;  &lt;/td&gt;&#xa;  &lt;td width=&quot;91&quot; valign=&quot;top&quot; style=&quot;width:68.6pt;border-top:none;border-left:none;&#xa;  border-bottom:solid windowtext 1.0pt;border-right:solid windowtext 1.0pt;&#xa;  mso-border-top-alt:solid windowtext .75pt;mso-border-left-alt:solid windowtext .75pt;&#xa;  mso-border-alt:solid windowtext .75pt;padding:0cm 3.5pt 0cm 3.5pt;height:&#xa;  14.85pt&quot;&gt;&#xa;  &lt;p class=&quot;MsoNormal&quot; align=&quot;center&quot; style=&quot;margin-bottom:0cm;text-align:center;&#xa;  line-height:normal;mso-layout-grid-align:none;text-autospace:none;mso-element:&#xa;  frame;mso-element-frame-hspace:7.05pt;mso-element-wrap:around;mso-element-anchor-horizontal:&#xa;  margin;mso-element-left:right;mso-element-top:-19.8pt;mso-height-rule:exactly&quot;&gt;&lt;b&gt;&lt;span style=&quot;mso-ascii-font-family:Calibri;mso-hansi-font-family:Calibri;&#xa;  mso-bidi-font-family:Calibri;color:black;mso-font-kerning:0pt&quot;&gt;Producto&lt;/span&gt;&lt;/b&gt;&lt;/p&gt;&#xa;  &lt;/td&gt;&#xa;  &lt;td width=&quot;91&quot; valign=&quot;top&quot; style=&quot;width:68.6pt;border-top:none;border-left:none;&#xa;  border-bottom:solid windowtext 1.0pt;border-right:solid windowtext 1.0pt;&#xa;  mso-border-top-alt:solid windowtext .75pt;mso-border-left-alt:solid windowtext .75pt;&#xa;  mso-border-alt:solid windowtext .75pt;padding:0cm 3.5pt 0cm 3.5pt;height:&#xa;  14.85pt&quot;&gt;&#xa;  &lt;p class=&quot;MsoNormal&quot; align=&quot;center&quot; style=&quot;margin-bottom:0cm;text-align:center;&#xa;  line-height:normal;mso-layout-grid-align:none;text-autospace:none;mso-element:&#xa;  frame;mso-element-frame-hspace:7.05pt;mso-element-wrap:around;mso-element-anchor-horizontal:&#xa;  margin;mso-element-left:right;mso-element-top:-19.8pt;mso-height-rule:exactly&quot;&gt;&lt;span style=&quot;mso-ascii-font-family:Calibri;mso-hansi-font-family:Calibri;&#xa;  mso-bidi-font-family:Calibri;color:black;mso-font-kerning:0pt&quot;&gt;N:1&lt;/span&gt;&lt;/p&gt;&#xa;  &lt;/td&gt;&#xa; &lt;/tr&gt;&#xa; &lt;tr style=&quot;mso-yfti-irow:3;height:14.85pt&quot;&gt;&#xa;  &lt;td width=&quot;91&quot; valign=&quot;top&quot; style=&quot;width:68.6pt;border:solid windowtext 1.0pt;&#xa;  border-top:none;mso-border-top-alt:solid windowtext .75pt;mso-border-alt:&#xa;  solid windowtext .75pt;padding:0cm 3.5pt 0cm 3.5pt;height:14.85pt&quot;&gt;&#xa;  &lt;p class=&quot;MsoNormal&quot; align=&quot;center&quot; style=&quot;margin-bottom:0cm;text-align:center;&#xa;  line-height:normal;mso-layout-grid-align:none;text-autospace:none;mso-element:&#xa;  frame;mso-element-frame-hspace:7.05pt;mso-element-wrap:around;mso-element-anchor-horizontal:&#xa;  margin;mso-element-left:right;mso-element-top:-19.8pt;mso-height-rule:exactly&quot;&gt;&lt;b&gt;&lt;span style=&quot;mso-ascii-font-family:Calibri;mso-hansi-font-family:Calibri;&#xa;  mso-bidi-font-family:Calibri;color:black;mso-font-kerning:0pt&quot;&gt;Producto&lt;/span&gt;&lt;/b&gt;&lt;/p&gt;&#xa;  &lt;/td&gt;&#xa;  &lt;td width=&quot;202&quot; valign=&quot;top&quot; style=&quot;width:151.85pt;border-top:none;border-left:&#xa;  none;border-bottom:solid windowtext 1.0pt;border-right:solid windowtext 1.0pt;&#xa;  mso-border-top-alt:solid windowtext .75pt;mso-border-left-alt:solid windowtext .75pt;&#xa;  mso-border-alt:solid windowtext .75pt;padding:0cm 3.5pt 0cm 3.5pt;height:&#xa;  14.85pt&quot;&gt;&#xa;  &lt;p class=&quot;MsoNormal&quot; align=&quot;center&quot; style=&quot;margin-bottom:0cm;text-align:center;&#xa;  line-height:normal;mso-layout-grid-align:none;text-autospace:none;mso-element:&#xa;  frame;mso-element-frame-hspace:7.05pt;mso-element-wrap:around;mso-element-anchor-horizontal:&#xa;  margin;mso-element-left:right;mso-element-top:-19.8pt;mso-height-rule:exactly&quot;&gt;&lt;b&gt;&lt;span style=&quot;mso-ascii-font-family:Calibri;mso-hansi-font-family:Calibri;&#xa;  mso-bidi-font-family:Calibri;color:black;mso-font-kerning:0pt&quot;&gt;Vehiculo&lt;/span&gt;&lt;/b&gt;&lt;/p&gt;&#xa;  &lt;/td&gt;&#xa;  &lt;td width=&quot;91&quot; valign=&quot;top&quot; style=&quot;width:68.6pt;border-top:none;border-left:none;&#xa;  border-bottom:solid windowtext 1.0pt;border-right:solid windowtext 1.0pt;&#xa;  mso-border-top-alt:solid windowtext .75pt;mso-border-left-alt:solid windowtext .75pt;&#xa;  mso-border-alt:solid windowtext .75pt;padding:0cm 3.5pt 0cm 3.5pt;height:&#xa;  14.85pt&quot;&gt;&#xa;  &lt;p class=&quot;MsoNormal&quot; align=&quot;center&quot; style=&quot;margin-bottom:0cm;text-align:center;&#xa;  line-height:normal;mso-layout-grid-align:none;text-autospace:none;mso-element:&#xa;  frame;mso-element-frame-hspace:7.05pt;mso-element-wrap:around;mso-element-anchor-horizontal:&#xa;  margin;mso-element-left:right;mso-element-top:-19.8pt;mso-height-rule:exactly&quot;&gt;&lt;span style=&quot;mso-ascii-font-family:Calibri;mso-hansi-font-family:Calibri;&#xa;  mso-bidi-font-family:Calibri;color:black;mso-font-kerning:0pt&quot;&gt;1:1&lt;/span&gt;&lt;/p&gt;&#xa;  &lt;/td&gt;&#xa;  &lt;td width=&quot;91&quot; valign=&quot;top&quot; style=&quot;width:68.6pt;border-top:none;border-left:none;&#xa;  border-bottom:solid windowtext 1.0pt;border-right:solid windowtext 1.0pt;&#xa;  mso-border-top-alt:solid windowtext .75pt;mso-border-left-alt:solid windowtext .75pt;&#xa;  mso-border-alt:solid windowtext .75pt;padding:0cm 3.5pt 0cm 3.5pt;height:&#xa;  14.85pt&quot;&gt;&#xa;  &lt;p class=&quot;MsoNormal&quot; align=&quot;center&quot; style=&quot;margin-bottom:0cm;text-align:center;&#xa;  line-height:normal;mso-layout-grid-align:none;text-autospace:none;mso-element:&#xa;  frame;mso-element-frame-hspace:7.05pt;mso-element-wrap:around;mso-element-anchor-horizontal:&#xa;  margin;mso-element-left:right;mso-element-top:-19.8pt;mso-height-rule:exactly&quot;&gt;&lt;b&gt;&lt;span style=&quot;mso-ascii-font-family:Calibri;mso-hansi-font-family:Calibri;&#xa;  mso-bidi-font-family:Calibri;color:black;mso-font-kerning:0pt&quot;&gt;Vehiculo&lt;/span&gt;&lt;/b&gt;&lt;/p&gt;&#xa;  &lt;/td&gt;&#xa;  &lt;td width=&quot;91&quot; valign=&quot;top&quot; style=&quot;width:68.6pt;border-top:none;border-left:none;&#xa;  border-bottom:solid windowtext 1.0pt;border-right:solid windowtext 1.0pt;&#xa;  mso-border-top-alt:solid windowtext .75pt;mso-border-left-alt:solid windowtext .75pt;&#xa;  mso-border-alt:solid windowtext .75pt;padding:0cm 3.5pt 0cm 3.5pt;height:&#xa;  14.85pt&quot;&gt;&#xa;  &lt;p class=&quot;MsoNormal&quot; align=&quot;center&quot; style=&quot;margin-bottom:0cm;text-align:center;&#xa;  line-height:normal;mso-layout-grid-align:none;text-autospace:none;mso-element:&#xa;  frame;mso-element-frame-hspace:7.05pt;mso-element-wrap:around;mso-element-anchor-horizontal:&#xa;  margin;mso-element-left:right;mso-element-top:-19.8pt;mso-height-rule:exactly&quot;&gt;&lt;b&gt;&lt;span style=&quot;mso-ascii-font-family:Calibri;mso-hansi-font-family:Calibri;&#xa;  mso-bidi-font-family:Calibri;color:black;mso-font-kerning:0pt&quot;&gt;Producto&lt;/span&gt;&lt;/b&gt;&lt;/p&gt;&#xa;  &lt;/td&gt;&#xa;  &lt;td width=&quot;91&quot; valign=&quot;top&quot; style=&quot;width:68.6pt;border-top:none;border-left:none;&#xa;  border-bottom:solid windowtext 1.0pt;border-right:solid windowtext 1.0pt;&#xa;  mso-border-top-alt:solid windowtext .75pt;mso-border-left-alt:solid windowtext .75pt;&#xa;  mso-border-alt:solid windowtext .75pt;padding:0cm 3.5pt 0cm 3.5pt;height:&#xa;  14.85pt&quot;&gt;&#xa;  &lt;p class=&quot;MsoNormal&quot; align=&quot;center&quot; style=&quot;margin-bottom:0cm;text-align:center;&#xa;  line-height:normal;mso-layout-grid-align:none;text-autospace:none;mso-element:&#xa;  frame;mso-element-frame-hspace:7.05pt;mso-element-wrap:around;mso-element-anchor-horizontal:&#xa;  margin;mso-element-left:right;mso-element-top:-19.8pt;mso-height-rule:exactly&quot;&gt;&lt;span style=&quot;mso-ascii-font-family:Calibri;mso-hansi-font-family:Calibri;&#xa;  mso-bidi-font-family:Calibri;color:black;mso-font-kerning:0pt&quot;&gt;1:1&lt;/span&gt;&lt;/p&gt;&#xa;  &lt;/td&gt;&#xa; &lt;/tr&gt;&#xa; &lt;tr style=&quot;mso-yfti-irow:4;height:17.3pt&quot;&gt;&#xa;  &lt;td width=&quot;91&quot; valign=&quot;top&quot; style=&quot;width:68.6pt;border:solid windowtext 1.0pt;&#xa;  border-top:none;mso-border-top-alt:solid windowtext .75pt;mso-border-alt:&#xa;  solid windowtext .75pt;padding:0cm 3.5pt 0cm 3.5pt;height:17.3pt&quot;&gt;&#xa;  &lt;p class=&quot;MsoNormal&quot; align=&quot;center&quot; style=&quot;margin-bottom:0cm;text-align:center;&#xa;  line-height:normal;mso-layout-grid-align:none;text-autospace:none;mso-element:&#xa;  frame;mso-element-frame-hspace:7.05pt;mso-element-wrap:around;mso-element-anchor-horizontal:&#xa;  margin;mso-element-left:right;mso-element-top:-19.8pt;mso-height-rule:exactly&quot;&gt;&lt;b&gt;&lt;span style=&quot;mso-ascii-font-family:Calibri;mso-hansi-font-family:Calibri;&#xa;  mso-bidi-font-family:Calibri;color:black;mso-font-kerning:0pt&quot;&gt;Vendedor&lt;/span&gt;&lt;/b&gt;&lt;/p&gt;&#xa;  &lt;/td&gt;&#xa;  &lt;td width=&quot;202&quot; valign=&quot;top&quot; style=&quot;width:151.85pt;border-top:none;border-left:&#xa;  none;border-bottom:solid windowtext 1.0pt;border-right:solid windowtext 1.0pt;&#xa;  mso-border-top-alt:solid windowtext .75pt;mso-border-left-alt:solid windowtext .75pt;&#xa;  mso-border-alt:solid windowtext .75pt;padding:0cm 3.5pt 0cm 3.5pt;height:&#xa;  17.3pt&quot;&gt;&#xa;  &lt;p class=&quot;MsoNormal&quot; align=&quot;center&quot; style=&quot;margin-bottom:0cm;text-align:center;&#xa;  line-height:normal;mso-layout-grid-align:none;text-autospace:none;mso-element:&#xa;  frame;mso-element-frame-hspace:7.05pt;mso-element-wrap:around;mso-element-anchor-horizontal:&#xa;  margin;mso-element-left:right;mso-element-top:-19.8pt;mso-height-rule:exactly&quot;&gt;&lt;b&gt;&lt;span style=&quot;mso-ascii-font-family:Calibri;mso-hansi-font-family:Calibri;&#xa;  mso-bidi-font-family:Calibri;color:black;mso-font-kerning:0pt&quot;&gt;Concesionario&lt;/span&gt;&lt;/b&gt;&lt;/p&gt;&#xa;  &lt;/td&gt;&#xa;  &lt;td width=&quot;91&quot; valign=&quot;top&quot; style=&quot;width:68.6pt;border-top:none;border-left:none;&#xa;  border-bottom:solid windowtext 1.0pt;border-right:solid windowtext 1.0pt;&#xa;  mso-border-top-alt:solid windowtext .75pt;mso-border-left-alt:solid windowtext .75pt;&#xa;  mso-border-alt:solid windowtext .75pt;padding:0cm 3.5pt 0cm 3.5pt;height:&#xa;  17.3pt&quot;&gt;&#xa;  &lt;p class=&quot;MsoNormal&quot; align=&quot;center&quot; style=&quot;margin-bottom:0cm;text-align:center;&#xa;  line-height:normal;mso-layout-grid-align:none;text-autospace:none;mso-element:&#xa;  frame;mso-element-frame-hspace:7.05pt;mso-element-wrap:around;mso-element-anchor-horizontal:&#xa;  margin;mso-element-left:right;mso-element-top:-19.8pt;mso-height-rule:exactly&quot;&gt;&lt;span style=&quot;mso-ascii-font-family:Calibri;mso-hansi-font-family:Calibri;&#xa;  mso-bidi-font-family:Calibri;color:black;mso-font-kerning:0pt&quot;&gt;1:N&lt;/span&gt;&lt;/p&gt;&#xa;  &lt;/td&gt;&#xa;  &lt;td width=&quot;91&quot; valign=&quot;top&quot; style=&quot;width:68.6pt;border-top:none;border-left:none;&#xa;  border-bottom:solid windowtext 1.0pt;border-right:solid windowtext 1.0pt;&#xa;  mso-border-top-alt:solid windowtext .75pt;mso-border-left-alt:solid windowtext .75pt;&#xa;  mso-border-alt:solid windowtext .75pt;padding:0cm 3.5pt 0cm 3.5pt;height:&#xa;  17.3pt&quot;&gt;&#xa;  &lt;p class=&quot;MsoNormal&quot; align=&quot;center&quot; style=&quot;margin-bottom:0cm;text-align:center;&#xa;  line-height:normal;mso-layout-grid-align:none;text-autospace:none;mso-element:&#xa;  frame;mso-element-frame-hspace:7.05pt;mso-element-wrap:around;mso-element-anchor-horizontal:&#xa;  margin;mso-element-left:right;mso-element-top:-19.8pt;mso-height-rule:exactly&quot;&gt;&lt;b&gt;&lt;span style=&quot;mso-ascii-font-family:Calibri;mso-hansi-font-family:Calibri;&#xa;  mso-bidi-font-family:Calibri;color:black;mso-font-kerning:0pt&quot;&gt;Concesionario&lt;/span&gt;&lt;/b&gt;&lt;/p&gt;&#xa;  &lt;/td&gt;&#xa;  &lt;td width=&quot;91&quot; valign=&quot;top&quot; style=&quot;width:68.6pt;border-top:none;border-left:none;&#xa;  border-bottom:solid windowtext 1.0pt;border-right:solid windowtext 1.0pt;&#xa;  mso-border-top-alt:solid windowtext .75pt;mso-border-left-alt:solid windowtext .75pt;&#xa;  mso-border-alt:solid windowtext .75pt;padding:0cm 3.5pt 0cm 3.5pt;height:&#xa;  17.3pt&quot;&gt;&#xa;  &lt;p class=&quot;MsoNormal&quot; align=&quot;center&quot; style=&quot;margin-bottom:0cm;text-align:center;&#xa;  line-height:normal;mso-layout-grid-align:none;text-autospace:none;mso-element:&#xa;  frame;mso-element-frame-hspace:7.05pt;mso-element-wrap:around;mso-element-anchor-horizontal:&#xa;  margin;mso-element-left:right;mso-element-top:-19.8pt;mso-height-rule:exactly&quot;&gt;&lt;b&gt;&lt;span style=&quot;mso-ascii-font-family:Calibri;mso-hansi-font-family:Calibri;&#xa;  mso-bidi-font-family:Calibri;color:black;mso-font-kerning:0pt&quot;&gt;Vendedor&lt;/span&gt;&lt;/b&gt;&lt;/p&gt;&#xa;  &lt;/td&gt;&#xa;  &lt;td width=&quot;91&quot; valign=&quot;top&quot; style=&quot;width:68.6pt;border-top:none;border-left:none;&#xa;  border-bottom:solid windowtext 1.0pt;border-right:solid windowtext 1.0pt;&#xa;  mso-border-top-alt:solid windowtext .75pt;mso-border-left-alt:solid windowtext .75pt;&#xa;  mso-border-alt:solid windowtext .75pt;padding:0cm 3.5pt 0cm 3.5pt;height:&#xa;  17.3pt&quot;&gt;&#xa;  &lt;p class=&quot;MsoNormal&quot; align=&quot;center&quot; style=&quot;margin-bottom:0cm;text-align:center;&#xa;  line-height:normal;mso-layout-grid-align:none;text-autospace:none;mso-element:&#xa;  frame;mso-element-frame-hspace:7.05pt;mso-element-wrap:around;mso-element-anchor-horizontal:&#xa;  margin;mso-element-left:right;mso-element-top:-19.8pt;mso-height-rule:exactly&quot;&gt;&lt;span style=&quot;mso-ascii-font-family:Calibri;mso-hansi-font-family:Calibri;&#xa;  mso-bidi-font-family:Calibri;color:black;mso-font-kerning:0pt&quot;&gt;1:1&lt;/span&gt;&lt;/p&gt;&#xa;  &lt;/td&gt;&#xa; &lt;/tr&gt;&#xa; &lt;tr style=&quot;mso-yfti-irow:5;height:14.85pt&quot;&gt;&#xa;  &lt;td width=&quot;91&quot; valign=&quot;top&quot; style=&quot;width:68.6pt;border:solid windowtext 1.0pt;&#xa;  border-top:none;mso-border-top-alt:solid windowtext .75pt;mso-border-alt:&#xa;  solid windowtext .75pt;padding:0cm 3.5pt 0cm 3.5pt;height:14.85pt&quot;&gt;&#xa;  &lt;p class=&quot;MsoNormal&quot; align=&quot;center&quot; style=&quot;margin-bottom:0cm;text-align:center;&#xa;  line-height:normal;mso-layout-grid-align:none;text-autospace:none;mso-element:&#xa;  frame;mso-element-frame-hspace:7.05pt;mso-element-wrap:around;mso-element-anchor-horizontal:&#xa;  margin;mso-element-left:right;mso-element-top:-19.8pt;mso-height-rule:exactly&quot;&gt;&lt;b&gt;&lt;span style=&quot;mso-ascii-font-family:Calibri;mso-hansi-font-family:Calibri;&#xa;  mso-bidi-font-family:Calibri;color:black;mso-font-kerning:0pt&quot;&gt;Vendedor&lt;/span&gt;&lt;/b&gt;&lt;/p&gt;&#xa;  &lt;/td&gt;&#xa;  &lt;td width=&quot;202&quot; valign=&quot;top&quot; style=&quot;width:151.85pt;border-top:none;border-left:&#xa;  none;border-bottom:solid windowtext 1.0pt;border-right:solid windowtext 1.0pt;&#xa;  mso-border-top-alt:solid windowtext .75pt;mso-border-left-alt:solid windowtext .75pt;&#xa;  mso-border-alt:solid windowtext .75pt;padding:0cm 3.5pt 0cm 3.5pt;height:&#xa;  14.85pt&quot;&gt;&#xa;  &lt;p class=&quot;MsoNormal&quot; align=&quot;center&quot; style=&quot;margin-bottom:0cm;text-align:center;&#xa;  line-height:normal;mso-layout-grid-align:none;text-autospace:none;mso-element:&#xa;  frame;mso-element-frame-hspace:7.05pt;mso-element-wrap:around;mso-element-anchor-horizontal:&#xa;  margin;mso-element-left:right;mso-element-top:-19.8pt;mso-height-rule:exactly&quot;&gt;&lt;b&gt;&lt;span style=&quot;mso-ascii-font-family:Calibri;mso-hansi-font-family:Calibri;&#xa;  mso-bidi-font-family:Calibri;color:black;mso-font-kerning:0pt&quot;&gt;Venta&lt;/span&gt;&lt;/b&gt;&lt;/p&gt;&#xa;  &lt;/td&gt;&#xa;  &lt;td width=&quot;91&quot; valign=&quot;top&quot; style=&quot;width:68.6pt;border-top:none;border-left:none;&#xa;  border-bottom:solid windowtext 1.0pt;border-right:solid windowtext 1.0pt;&#xa;  mso-border-top-alt:solid windowtext .75pt;mso-border-left-alt:solid windowtext .75pt;&#xa;  mso-border-alt:solid windowtext .75pt;padding:0cm 3.5pt 0cm 3.5pt;height:&#xa;  14.85pt&quot;&gt;&#xa;  &lt;p class=&quot;MsoNormal&quot; align=&quot;center&quot; style=&quot;margin-bottom:0cm;text-align:center;&#xa;  line-height:normal;mso-layout-grid-align:none;text-autospace:none;mso-element:&#xa;  frame;mso-element-frame-hspace:7.05pt;mso-element-wrap:around;mso-element-anchor-horizontal:&#xa;  margin;mso-element-left:right;mso-element-top:-19.8pt;mso-height-rule:exactly&quot;&gt;&lt;span style=&quot;mso-ascii-font-family:Calibri;mso-hansi-font-family:Calibri;&#xa;  mso-bidi-font-family:Calibri;color:black;mso-font-kerning:0pt&quot;&gt;1:N&lt;/span&gt;&lt;/p&gt;&#xa;  &lt;/td&gt;&#xa;  &lt;td width=&quot;91&quot; valign=&quot;top&quot; style=&quot;width:68.6pt;border-top:none;border-left:none;&#xa;  border-bottom:solid windowtext 1.0pt;border-right:solid windowtext 1.0pt;&#xa;  mso-border-top-alt:solid windowtext .75pt;mso-border-left-alt:solid windowtext .75pt;&#xa;  mso-border-alt:solid windowtext .75pt;padding:0cm 3.5pt 0cm 3.5pt;height:&#xa;  14.85pt&quot;&gt;&#xa;  &lt;p class=&quot;MsoNormal&quot; align=&quot;center&quot; style=&quot;margin-bottom:0cm;text-align:center;&#xa;  line-height:normal;mso-layout-grid-align:none;text-autospace:none;mso-element:&#xa;  frame;mso-element-frame-hspace:7.05pt;mso-element-wrap:around;mso-element-anchor-horizontal:&#xa;  margin;mso-element-left:right;mso-element-top:-19.8pt;mso-height-rule:exactly&quot;&gt;&lt;b&gt;&lt;span style=&quot;mso-ascii-font-family:Calibri;mso-hansi-font-family:Calibri;&#xa;  mso-bidi-font-family:Calibri;color:black;mso-font-kerning:0pt&quot;&gt;Venta&lt;/span&gt;&lt;/b&gt;&lt;/p&gt;&#xa;  &lt;/td&gt;&#xa;  &lt;td width=&quot;91&quot; valign=&quot;top&quot; style=&quot;width:68.6pt;border-top:none;border-left:none;&#xa;  border-bottom:solid windowtext 1.0pt;border-right:solid windowtext 1.0pt;&#xa;  mso-border-top-alt:solid windowtext .75pt;mso-border-left-alt:solid windowtext .75pt;&#xa;  mso-border-alt:solid windowtext .75pt;padding:0cm 3.5pt 0cm 3.5pt;height:&#xa;  14.85pt&quot;&gt;&#xa;  &lt;p class=&quot;MsoNormal&quot; align=&quot;center&quot; style=&quot;margin-bottom:0cm;text-align:center;&#xa;  line-height:normal;mso-layout-grid-align:none;text-autospace:none;mso-element:&#xa;  frame;mso-element-frame-hspace:7.05pt;mso-element-wrap:around;mso-element-anchor-horizontal:&#xa;  margin;mso-element-left:right;mso-element-top:-19.8pt;mso-height-rule:exactly&quot;&gt;&lt;b&gt;&lt;span style=&quot;mso-ascii-font-family:Calibri;mso-hansi-font-family:Calibri;&#xa;  mso-bidi-font-family:Calibri;color:black;mso-font-kerning:0pt&quot;&gt;Vendedor&lt;/span&gt;&lt;/b&gt;&lt;/p&gt;&#xa;  &lt;/td&gt;&#xa;  &lt;td width=&quot;91&quot; valign=&quot;top&quot; style=&quot;width:68.6pt;border-top:none;border-left:none;&#xa;  border-bottom:solid windowtext 1.0pt;border-right:solid windowtext 1.0pt;&#xa;  mso-border-top-alt:solid windowtext .75pt;mso-border-left-alt:solid windowtext .75pt;&#xa;  mso-border-alt:solid windowtext .75pt;padding:0cm 3.5pt 0cm 3.5pt;height:&#xa;  14.85pt&quot;&gt;&#xa;  &lt;p class=&quot;MsoNormal&quot; align=&quot;center&quot; style=&quot;margin-bottom:0cm;text-align:center;&#xa;  line-height:normal;mso-layout-grid-align:none;text-autospace:none;mso-element:&#xa;  frame;mso-element-frame-hspace:7.05pt;mso-element-wrap:around;mso-element-anchor-horizontal:&#xa;  margin;mso-element-left:right;mso-element-top:-19.8pt;mso-height-rule:exactly&quot;&gt;&lt;span style=&quot;mso-ascii-font-family:Calibri;mso-hansi-font-family:Calibri;&#xa;  mso-bidi-font-family:Calibri;color:black;mso-font-kerning:0pt&quot;&gt;1:N&lt;/span&gt;&lt;/p&gt;&#xa;  &lt;/td&gt;&#xa; &lt;/tr&gt;&#xa; &lt;tr style=&quot;mso-yfti-irow:6;height:14.85pt&quot;&gt;&#xa;  &lt;td width=&quot;91&quot; valign=&quot;top&quot; style=&quot;width:68.6pt;border:solid windowtext 1.0pt;&#xa;  border-top:none;mso-border-top-alt:solid windowtext .75pt;mso-border-alt:&#xa;  solid windowtext .75pt;padding:0cm 3.5pt 0cm 3.5pt;height:14.85pt&quot;&gt;&#xa;  &lt;p class=&quot;MsoNormal&quot; align=&quot;center&quot; style=&quot;margin-bottom:0cm;text-align:center;&#xa;  line-height:normal;mso-layout-grid-align:none;text-autospace:none;mso-element:&#xa;  frame;mso-element-frame-hspace:7.05pt;mso-element-wrap:around;mso-element-anchor-horizontal:&#xa;  margin;mso-element-left:right;mso-element-top:-19.8pt;mso-height-rule:exactly&quot;&gt;&lt;b&gt;&lt;span style=&quot;mso-ascii-font-family:Calibri;mso-hansi-font-family:Calibri;&#xa;  mso-bidi-font-family:Calibri;color:black;mso-font-kerning:0pt&quot;&gt;Cliente&lt;/span&gt;&lt;/b&gt;&lt;/p&gt;&#xa;  &lt;/td&gt;&#xa;  &lt;td width=&quot;202&quot; valign=&quot;top&quot; style=&quot;width:151.85pt;border-top:none;border-left:&#xa;  none;border-bottom:solid windowtext 1.0pt;border-right:solid windowtext 1.0pt;&#xa;  mso-border-top-alt:solid windowtext .75pt;mso-border-left-alt:solid windowtext .75pt;&#xa;  mso-border-alt:solid windowtext .75pt;padding:0cm 3.5pt 0cm 3.5pt;height:&#xa;  14.85pt&quot;&gt;&#xa;  &lt;p class=&quot;MsoNormal&quot; align=&quot;center&quot; style=&quot;margin-bottom:0cm;text-align:center;&#xa;  line-height:normal;mso-layout-grid-align:none;text-autospace:none;mso-element:&#xa;  frame;mso-element-frame-hspace:7.05pt;mso-element-wrap:around;mso-element-anchor-horizontal:&#xa;  margin;mso-element-left:right;mso-element-top:-19.8pt;mso-height-rule:exactly&quot;&gt;&lt;b&gt;&lt;span style=&quot;mso-ascii-font-family:Calibri;mso-hansi-font-family:Calibri;&#xa;  mso-bidi-font-family:Calibri;color:black;mso-font-kerning:0pt&quot;&gt;Venta&lt;/span&gt;&lt;/b&gt;&lt;/p&gt;&#xa;  &lt;/td&gt;&#xa;  &lt;td width=&quot;91&quot; valign=&quot;top&quot; style=&quot;width:68.6pt;border-top:none;border-left:none;&#xa;  border-bottom:solid windowtext 1.0pt;border-right:solid windowtext 1.0pt;&#xa;  mso-border-top-alt:solid windowtext .75pt;mso-border-left-alt:solid windowtext .75pt;&#xa;  mso-border-alt:solid windowtext .75pt;padding:0cm 3.5pt 0cm 3.5pt;height:&#xa;  14.85pt&quot;&gt;&#xa;  &lt;p class=&quot;MsoNormal&quot; align=&quot;center&quot; style=&quot;margin-bottom:0cm;text-align:center;&#xa;  line-height:normal;mso-layout-grid-align:none;text-autospace:none;mso-element:&#xa;  frame;mso-element-frame-hspace:7.05pt;mso-element-wrap:around;mso-element-anchor-horizontal:&#xa;  margin;mso-element-left:right;mso-element-top:-19.8pt;mso-height-rule:exactly&quot;&gt;&lt;span style=&quot;mso-ascii-font-family:Calibri;mso-hansi-font-family:Calibri;&#xa;  mso-bidi-font-family:Calibri;color:black;mso-font-kerning:0pt&quot;&gt;1:N&lt;/span&gt;&lt;/p&gt;&#xa;  &lt;/td&gt;&#xa;  &lt;td width=&quot;91&quot; valign=&quot;top&quot; style=&quot;width:68.6pt;border-top:none;border-left:none;&#xa;  border-bottom:solid windowtext 1.0pt;border-right:solid windowtext 1.0pt;&#xa;  mso-border-top-alt:solid windowtext .75pt;mso-border-left-alt:solid windowtext .75pt;&#xa;  mso-border-alt:solid windowtext .75pt;padding:0cm 3.5pt 0cm 3.5pt;height:&#xa;  14.85pt&quot;&gt;&#xa;  &lt;p class=&quot;MsoNormal&quot; align=&quot;center&quot; style=&quot;margin-bottom:0cm;text-align:center;&#xa;  line-height:normal;mso-layout-grid-align:none;text-autospace:none;mso-element:&#xa;  frame;mso-element-frame-hspace:7.05pt;mso-element-wrap:around;mso-element-anchor-horizontal:&#xa;  margin;mso-element-left:right;mso-element-top:-19.8pt;mso-height-rule:exactly&quot;&gt;&lt;b&gt;&lt;span style=&quot;mso-ascii-font-family:Calibri;mso-hansi-font-family:Calibri;&#xa;  mso-bidi-font-family:Calibri;color:black;mso-font-kerning:0pt&quot;&gt;Venta&lt;/span&gt;&lt;/b&gt;&lt;/p&gt;&#xa;  &lt;/td&gt;&#xa;  &lt;td width=&quot;91&quot; valign=&quot;top&quot; style=&quot;width:68.6pt;border-top:none;border-left:none;&#xa;  border-bottom:solid windowtext 1.0pt;border-right:solid windowtext 1.0pt;&#xa;  mso-border-top-alt:solid windowtext .75pt;mso-border-left-alt:solid windowtext .75pt;&#xa;  mso-border-alt:solid windowtext .75pt;padding:0cm 3.5pt 0cm 3.5pt;height:&#xa;  14.85pt&quot;&gt;&#xa;  &lt;p class=&quot;MsoNormal&quot; align=&quot;center&quot; style=&quot;margin-bottom:0cm;text-align:center;&#xa;  line-height:normal;mso-layout-grid-align:none;text-autospace:none;mso-element:&#xa;  frame;mso-element-frame-hspace:7.05pt;mso-element-wrap:around;mso-element-anchor-horizontal:&#xa;  margin;mso-element-left:right;mso-element-top:-19.8pt;mso-height-rule:exactly&quot;&gt;&lt;b&gt;&lt;span style=&quot;mso-ascii-font-family:Calibri;mso-hansi-font-family:Calibri;&#xa;  mso-bidi-font-family:Calibri;color:black;mso-font-kerning:0pt&quot;&gt;Cliente&lt;/span&gt;&lt;/b&gt;&lt;/p&gt;&#xa;  &lt;/td&gt;&#xa;  &lt;td width=&quot;91&quot; valign=&quot;top&quot; style=&quot;width:68.6pt;border-top:none;border-left:none;&#xa;  border-bottom:solid windowtext 1.0pt;border-right:solid windowtext 1.0pt;&#xa;  mso-border-top-alt:solid windowtext .75pt;mso-border-left-alt:solid windowtext .75pt;&#xa;  mso-border-alt:solid windowtext .75pt;padding:0cm 3.5pt 0cm 3.5pt;height:&#xa;  14.85pt&quot;&gt;&#xa;  &lt;p class=&quot;MsoNormal&quot; align=&quot;center&quot; style=&quot;margin-bottom:0cm;text-align:center;&#xa;  line-height:normal;mso-layout-grid-align:none;text-autospace:none;mso-element:&#xa;  frame;mso-element-frame-hspace:7.05pt;mso-element-wrap:around;mso-element-anchor-horizontal:&#xa;  margin;mso-element-left:right;mso-element-top:-19.8pt;mso-height-rule:exactly&quot;&gt;&lt;span style=&quot;mso-ascii-font-family:Calibri;mso-hansi-font-family:Calibri;&#xa;  mso-bidi-font-family:Calibri;color:black;mso-font-kerning:0pt&quot;&gt;1N&lt;/span&gt;&lt;/p&gt;&#xa;  &lt;/td&gt;&#xa; &lt;/tr&gt;&#xa; &lt;tr style=&quot;mso-yfti-irow:7;height:14.85pt&quot;&gt;&#xa;  &lt;td width=&quot;91&quot; valign=&quot;top&quot; style=&quot;width:68.6pt;border:solid windowtext 1.0pt;&#xa;  border-top:none;mso-border-top-alt:solid windowtext .75pt;mso-border-alt:&#xa;  solid windowtext .75pt;padding:0cm 3.5pt 0cm 3.5pt;height:14.85pt&quot;&gt;&#xa;  &lt;p class=&quot;MsoNormal&quot; align=&quot;center&quot; style=&quot;margin-bottom:0cm;text-align:center;&#xa;  line-height:normal;mso-layout-grid-align:none;text-autospace:none;mso-element:&#xa;  frame;mso-element-frame-hspace:7.05pt;mso-element-wrap:around;mso-element-anchor-horizontal:&#xa;  margin;mso-element-left:right;mso-element-top:-19.8pt;mso-height-rule:exactly&quot;&gt;&lt;b&gt;&lt;span style=&quot;mso-ascii-font-family:Calibri;mso-hansi-font-family:Calibri;&#xa;  mso-bidi-font-family:Calibri;color:black;mso-font-kerning:0pt&quot;&gt;Venta&lt;/span&gt;&lt;/b&gt;&lt;/p&gt;&#xa;  &lt;/td&gt;&#xa;  &lt;td width=&quot;202&quot; valign=&quot;top&quot; style=&quot;width:151.85pt;border-top:none;border-left:&#xa;  none;border-bottom:solid windowtext 1.0pt;border-right:solid windowtext 1.0pt;&#xa;  mso-border-top-alt:solid windowtext .75pt;mso-border-left-alt:solid windowtext .75pt;&#xa;  mso-border-alt:solid windowtext .75pt;padding:0cm 3.5pt 0cm 3.5pt;height:&#xa;  14.85pt&quot;&gt;&#xa;  &lt;p class=&quot;MsoNormal&quot; align=&quot;center&quot; style=&quot;margin-bottom:0cm;text-align:center;&#xa;  line-height:normal;mso-layout-grid-align:none;text-autospace:none;mso-element:&#xa;  frame;mso-element-frame-hspace:7.05pt;mso-element-wrap:around;mso-element-anchor-horizontal:&#xa;  margin;mso-element-left:right;mso-element-top:-19.8pt;mso-height-rule:exactly&quot;&gt;&lt;b&gt;&lt;span style=&quot;mso-ascii-font-family:Calibri;mso-hansi-font-family:Calibri;&#xa;  mso-bidi-font-family:Calibri;color:black;mso-font-kerning:0pt&quot;&gt;DetalleVenta&lt;/span&gt;&lt;/b&gt;&lt;/p&gt;&#xa;  &lt;/td&gt;&#xa;  &lt;td width=&quot;91&quot; valign=&quot;top&quot; style=&quot;width:68.6pt;border-top:none;border-left:none;&#xa;  border-bottom:solid windowtext 1.0pt;border-right:solid windowtext 1.0pt;&#xa;  mso-border-top-alt:solid windowtext .75pt;mso-border-left-alt:solid windowtext .75pt;&#xa;  mso-border-alt:solid windowtext .75pt;padding:0cm 3.5pt 0cm 3.5pt;height:&#xa;  14.85pt&quot;&gt;&#xa;  &lt;p class=&quot;MsoNormal&quot; align=&quot;center&quot; style=&quot;margin-bottom:0cm;text-align:center;&#xa;  line-height:normal;mso-layout-grid-align:none;text-autospace:none;mso-element:&#xa;  frame;mso-element-frame-hspace:7.05pt;mso-element-wrap:around;mso-element-anchor-horizontal:&#xa;  margin;mso-element-left:right;mso-element-top:-19.8pt;mso-height-rule:exactly&quot;&gt;&lt;span style=&quot;mso-ascii-font-family:Calibri;mso-hansi-font-family:Calibri;&#xa;  mso-bidi-font-family:Calibri;color:black;mso-font-kerning:0pt&quot;&gt;1:N&lt;/span&gt;&lt;/p&gt;&#xa;  &lt;/td&gt;&#xa;  &lt;td width=&quot;91&quot; valign=&quot;top&quot; style=&quot;width:68.6pt;border-top:none;border-left:none;&#xa;  border-bottom:solid windowtext 1.0pt;border-right:solid windowtext 1.0pt;&#xa;  mso-border-top-alt:solid windowtext .75pt;mso-border-left-alt:solid windowtext .75pt;&#xa;  mso-border-alt:solid windowtext .75pt;padding:0cm 3.5pt 0cm 3.5pt;height:&#xa;  14.85pt&quot;&gt;&#xa;  &lt;p class=&quot;MsoNormal&quot; align=&quot;center&quot; style=&quot;margin-bottom:0cm;text-align:center;&#xa;  line-height:normal;mso-layout-grid-align:none;text-autospace:none;mso-element:&#xa;  frame;mso-element-frame-hspace:7.05pt;mso-element-wrap:around;mso-element-anchor-horizontal:&#xa;  margin;mso-element-left:right;mso-element-top:-19.8pt;mso-height-rule:exactly&quot;&gt;&lt;b&gt;&lt;span style=&quot;mso-ascii-font-family:Calibri;mso-hansi-font-family:Calibri;&#xa;  mso-bidi-font-family:Calibri;color:black;mso-font-kerning:0pt&quot;&gt;DetalleVenta&lt;/span&gt;&lt;/b&gt;&lt;/p&gt;&#xa;  &lt;/td&gt;&#xa;  &lt;td width=&quot;91&quot; valign=&quot;top&quot; style=&quot;width:68.6pt;border-top:none;border-left:none;&#xa;  border-bottom:solid windowtext 1.0pt;border-right:solid windowtext 1.0pt;&#xa;  mso-border-top-alt:solid windowtext .75pt;mso-border-left-alt:solid windowtext .75pt;&#xa;  mso-border-alt:solid windowtext .75pt;padding:0cm 3.5pt 0cm 3.5pt;height:&#xa;  14.85pt&quot;&gt;&#xa;  &lt;p class=&quot;MsoNormal&quot; align=&quot;center&quot; style=&quot;margin-bottom:0cm;text-align:center;&#xa;  line-height:normal;mso-layout-grid-align:none;text-autospace:none;mso-element:&#xa;  frame;mso-element-frame-hspace:7.05pt;mso-element-wrap:around;mso-element-anchor-horizontal:&#xa;  margin;mso-element-left:right;mso-element-top:-19.8pt;mso-height-rule:exactly&quot;&gt;&lt;b&gt;&lt;span style=&quot;mso-ascii-font-family:Calibri;mso-hansi-font-family:Calibri;&#xa;  mso-bidi-font-family:Calibri;color:black;mso-font-kerning:0pt&quot;&gt;Venta&lt;/span&gt;&lt;/b&gt;&lt;/p&gt;&#xa;  &lt;/td&gt;&#xa;  &lt;td width=&quot;91&quot; valign=&quot;top&quot; style=&quot;width:68.6pt;border-top:none;border-left:none;&#xa;  border-bottom:solid windowtext 1.0pt;border-right:solid windowtext 1.0pt;&#xa;  mso-border-top-alt:solid windowtext .75pt;mso-border-left-alt:solid windowtext .75pt;&#xa;  mso-border-alt:solid windowtext .75pt;padding:0cm 3.5pt 0cm 3.5pt;height:&#xa;  14.85pt&quot;&gt;&#xa;  &lt;p class=&quot;MsoNormal&quot; align=&quot;center&quot; style=&quot;margin-bottom:0cm;text-align:center;&#xa;  line-height:normal;mso-layout-grid-align:none;text-autospace:none;mso-element:&#xa;  frame;mso-element-frame-hspace:7.05pt;mso-element-wrap:around;mso-element-anchor-horizontal:&#xa;  margin;mso-element-left:right;mso-element-top:-19.8pt;mso-height-rule:exactly&quot;&gt;&lt;span style=&quot;mso-ascii-font-family:Calibri;mso-hansi-font-family:Calibri;&#xa;  mso-bidi-font-family:Calibri;color:black;mso-font-kerning:0pt&quot;&gt;1:1&lt;/span&gt;&lt;/p&gt;&#xa;  &lt;/td&gt;&#xa; &lt;/tr&gt;&#xa; &lt;tr style=&quot;mso-yfti-irow:8;mso-yfti-lastrow:yes;height:14.85pt&quot;&gt;&#xa;  &lt;td width=&quot;91&quot; valign=&quot;top&quot; style=&quot;width:68.6pt;border:solid windowtext 1.0pt;&#xa;  border-top:none;mso-border-top-alt:solid windowtext .75pt;mso-border-alt:&#xa;  solid windowtext .75pt;padding:0cm 3.5pt 0cm 3.5pt;height:14.85pt&quot;&gt;&#xa;  &lt;p class=&quot;MsoNormal&quot; align=&quot;center&quot; style=&quot;margin-bottom:0cm;text-align:center;&#xa;  line-height:normal;mso-layout-grid-align:none;text-autospace:none;mso-element:&#xa;  frame;mso-element-frame-hspace:7.05pt;mso-element-wrap:around;mso-element-anchor-horizontal:&#xa;  margin;mso-element-left:right;mso-element-top:-19.8pt;mso-height-rule:exactly&quot;&gt;&lt;b&gt;&lt;span style=&quot;mso-ascii-font-family:Calibri;mso-hansi-font-family:Calibri;&#xa;  mso-bidi-font-family:Calibri;color:black;mso-font-kerning:0pt&quot;&gt;DetalleVenta&lt;/span&gt;&lt;/b&gt;&lt;/p&gt;&#xa;  &lt;/td&gt;&#xa;  &lt;td width=&quot;202&quot; valign=&quot;top&quot; style=&quot;width:151.85pt;border-top:none;border-left:&#xa;  none;border-bottom:solid windowtext 1.0pt;border-right:solid windowtext 1.0pt;&#xa;  mso-border-top-alt:solid windowtext .75pt;mso-border-left-alt:solid windowtext .75pt;&#xa;  mso-border-alt:solid windowtext .75pt;padding:0cm 3.5pt 0cm 3.5pt;height:&#xa;  14.85pt&quot;&gt;&#xa;  &lt;p class=&quot;MsoNormal&quot; align=&quot;center&quot; style=&quot;margin-bottom:0cm;text-align:center;&#xa;  line-height:normal;mso-layout-grid-align:none;text-autospace:none;mso-element:&#xa;  frame;mso-element-frame-hspace:7.05pt;mso-element-wrap:around;mso-element-anchor-horizontal:&#xa;  margin;mso-element-left:right;mso-element-top:-19.8pt;mso-height-rule:exactly&quot;&gt;&lt;b&gt;&lt;span style=&quot;mso-ascii-font-family:Calibri;mso-hansi-font-family:Calibri;&#xa;  mso-bidi-font-family:Calibri;color:black;mso-font-kerning:0pt&quot;&gt;Producto&lt;/span&gt;&lt;/b&gt;&lt;/p&gt;&#xa;  &lt;/td&gt;&#xa;  &lt;td width=&quot;91&quot; valign=&quot;top&quot; style=&quot;width:68.6pt;border-top:none;border-left:none;&#xa;  border-bottom:solid windowtext 1.0pt;border-right:solid windowtext 1.0pt;&#xa;  mso-border-top-alt:solid windowtext .75pt;mso-border-left-alt:solid windowtext .75pt;&#xa;  mso-border-alt:solid windowtext .75pt;padding:0cm 3.5pt 0cm 3.5pt;height:&#xa;  14.85pt&quot;&gt;&#xa;  &lt;p class=&quot;MsoNormal&quot; align=&quot;center&quot; style=&quot;margin-bottom:0cm;text-align:center;&#xa;  line-height:normal;mso-layout-grid-align:none;text-autospace:none;mso-element:&#xa;  frame;mso-element-frame-hspace:7.05pt;mso-element-wrap:around;mso-element-anchor-horizontal:&#xa;  margin;mso-element-left:right;mso-element-top:-19.8pt;mso-height-rule:exactly&quot;&gt;&lt;span style=&quot;mso-ascii-font-family:Calibri;mso-hansi-font-family:Calibri;&#xa;  mso-bidi-font-family:Calibri;color:black;mso-font-kerning:0pt&quot;&gt;1:1&lt;/span&gt;&lt;/p&gt;&#xa;  &lt;/td&gt;&#xa;  &lt;td width=&quot;91&quot; valign=&quot;top&quot; style=&quot;width:68.6pt;border-top:none;border-left:none;&#xa;  border-bottom:solid windowtext 1.0pt;border-right:solid windowtext 1.0pt;&#xa;  mso-border-top-alt:solid windowtext .75pt;mso-border-left-alt:solid windowtext .75pt;&#xa;  mso-border-alt:solid windowtext .75pt;padding:0cm 3.5pt 0cm 3.5pt;height:&#xa;  14.85pt&quot;&gt;&#xa;  &lt;p class=&quot;MsoNormal&quot; align=&quot;center&quot; style=&quot;margin-bottom:0cm;text-align:center;&#xa;  line-height:normal;mso-layout-grid-align:none;text-autospace:none;mso-element:&#xa;  frame;mso-element-frame-hspace:7.05pt;mso-element-wrap:around;mso-element-anchor-horizontal:&#xa;  margin;mso-element-left:right;mso-element-top:-19.8pt;mso-height-rule:exactly&quot;&gt;&lt;b&gt;&lt;span style=&quot;mso-ascii-font-family:Calibri;mso-hansi-font-family:Calibri;&#xa;  mso-bidi-font-family:Calibri;color:black;mso-font-kerning:0pt&quot;&gt;Producto&lt;/span&gt;&lt;/b&gt;&lt;/p&gt;&#xa;  &lt;/td&gt;&#xa;  &lt;td width=&quot;91&quot; valign=&quot;top&quot; style=&quot;width:68.6pt;border-top:none;border-left:none;&#xa;  border-bottom:solid windowtext 1.0pt;border-right:solid windowtext 1.0pt;&#xa;  mso-border-top-alt:solid windowtext .75pt;mso-border-left-alt:solid windowtext .75pt;&#xa;  mso-border-alt:solid windowtext .75pt;padding:0cm 3.5pt 0cm 3.5pt;height:&#xa;  14.85pt&quot;&gt;&#xa;  &lt;p class=&quot;MsoNormal&quot; align=&quot;center&quot; style=&quot;margin-bottom:0cm;text-align:center;&#xa;  line-height:normal;mso-layout-grid-align:none;text-autospace:none;mso-element:&#xa;  frame;mso-element-frame-hspace:7.05pt;mso-element-wrap:around;mso-element-anchor-horizontal:&#xa;  margin;mso-element-left:right;mso-element-top:-19.8pt;mso-height-rule:exactly&quot;&gt;&lt;b&gt;&lt;span style=&quot;mso-ascii-font-family:Calibri;mso-hansi-font-family:Calibri;&#xa;  mso-bidi-font-family:Calibri;color:black;mso-font-kerning:0pt&quot;&gt;DetalleVenta&lt;/span&gt;&lt;/b&gt;&lt;/p&gt;&#xa;  &lt;/td&gt;&#xa;  &lt;td width=&quot;91&quot; valign=&quot;top&quot; style=&quot;width:68.6pt;border-top:none;border-left:none;&#xa;  border-bottom:solid windowtext 1.0pt;border-right:solid windowtext 1.0pt;&#xa;  mso-border-top-alt:solid windowtext .75pt;mso-border-left-alt:solid windowtext .75pt;&#xa;  mso-border-alt:solid windowtext .75pt;padding:0cm 3.5pt 0cm 3.5pt;height:&#xa;  14.85pt&quot;&gt;&#xa;  &lt;p class=&quot;MsoNormal&quot; align=&quot;center&quot; style=&quot;margin-bottom:0cm;text-align:center;&#xa;  line-height:normal;mso-layout-grid-align:none;text-autospace:none;mso-element:&#xa;  frame;mso-element-frame-hspace:7.05pt;mso-element-wrap:around;mso-element-anchor-horizontal:&#xa;  margin;mso-element-left:right;mso-element-top:-19.8pt;mso-height-rule:exactly&quot;&gt;&lt;span style=&quot;mso-ascii-font-family:Calibri;mso-hansi-font-family:Calibri;&#xa;  mso-bidi-font-family:Calibri;color:black;mso-font-kerning:0pt&quot;&gt;1:1&lt;/span&gt;&lt;/p&gt;&#xa;  &lt;/td&gt;&#xa; &lt;/tr&gt;&#xa;&lt;/tbody&gt;&lt;/table&gt;" style="text;whiteSpace=wrap;html=1;fontColor=#1D3557;" parent="1" vertex="1">
          <mxGeometry x="-990" y="-870" width="560" height="1600" as="geometry" />
        </mxCell>
        <mxCell id="Du0r4xQM6rrGVBfCKi6Y-50" value="&lt;h1&gt;&lt;font style=&quot;font-size: 39px;&quot;&gt;RELACIONES Y CARDINALIDADES&lt;/font&gt;&lt;/h1&gt;" style="text;html=1;align=center;verticalAlign=middle;resizable=0;points=[];autosize=1;strokeColor=#666666;fillColor=#f5f5f5;fontColor=#333333;" parent="1" vertex="1">
          <mxGeometry x="-990" y="180" width="680" height="90" as="geometry" />
        </mxCell>
      </root>
    </mxGraphModel>
  </diagram>
</mxfile>
